<?xml version="1.0" encoding="utf-8"?>
<!-- Generator: Adobe Illustrator 23.0.3, SVG Export Plug-In . SVG Version: 6.00 Build 0)  -->
<svg version="1.1" xmlns="http://www.w3.org/2000/svg" xmlns:xlink="http://www.w3.org/1999/xlink" x="0px" y="0px"
	 viewBox="0 0 1200 630" enable-background="new 0 0 1200 630" xml:space="preserve">
<g id="Layer_1">
</g>
<g id="graiden_x5F_overlay">
	<linearGradient id="SVGID_1_" gradientUnits="userSpaceOnUse" x1="599.5" y1="331.2984" x2="599.5" y2="618.0385">
		<stop  offset="0" style="stop-color:#000000;stop-opacity:0"/>
		<stop  offset="0.4613" style="stop-color:#000000;stop-opacity:0.7"/>
		<stop  offset="1" style="stop-color:#000000"/>
	</linearGradient>
	<rect x="-1" y="313" fill="url(#SVGID_1_)" width="1201" height="319"/>
</g>
<g id="ust_x5F_bant">
	<linearGradient id="SVGID_2_" gradientUnits="userSpaceOnUse" x1="-1" y1="31" x2="1201" y2="31">
		<stop  offset="1.123600e-02" style="stop-color:#ED1C24"/>
		<stop  offset="0.5" style="stop-color:#AB0F14"/>
		<stop  offset="0.9944" style="stop-color:#670000"/>
	</linearGradient>
	<rect x="-1" y="-1" fill="url(#SVGID_2_)" width="1202" height="64"/>
</g>
<g id="logo_x5F_text">
	<g>
		<g>
			<g>
				<path fill="#FFFFFF" d="M1018.4,25.7v-2.9c0-0.2,0.1-0.4,0.2-0.5c0.1-0.2,0.3-0.3,0.4-0.4c0.2-0.1,0.4-0.2,0.6-0.2h0.7v-2.4h0.9
					v6.4c0,0.2-0.1,0.4-0.2,0.6c-0.1,0.2-0.3,0.3-0.4,0.4c-0.2,0.1-0.4,0.2-0.5,0.2h-0.5c-0.2,0-0.4-0.1-0.6-0.2
					c-0.2-0.1-0.3-0.3-0.4-0.4C1018.4,26.1,1018.4,25.9,1018.4,25.7z M1020.3,26.3v-3.9h-0.9v3.9H1020.3z"/>
				<path fill="#FFFFFF" d="M1028.5,26.9h-2.1c-0.3,0-0.6-0.1-0.8-0.3c-0.2-0.2-0.3-0.5-0.3-0.8v-4.1h1v4.5h0.9v-4.5h0.9v4.5h0.4
					V26.9z M1026.2,21.1c-0.1,0-0.1,0-0.1,0c-0.2,0-0.3-0.1-0.4-0.3c0,0,0-0.1,0-0.2c0-0.1,0-0.1,0-0.2c0-0.1,0.1-0.1,0.1-0.2
					c0.1-0.1,0.2-0.1,0.4-0.1c0.1,0,0.2,0,0.3,0.1c0.1,0.1,0.1,0.2,0.1,0.3C1026.6,20.9,1026.4,21.1,1026.2,21.1z M1027.6,21.1
					c-0.1,0-0.1,0-0.1,0c-0.2,0-0.3-0.1-0.3-0.1c0-0.1-0.1-0.2-0.2-0.4c0-0.1,0-0.1,0-0.2c0-0.1,0.1-0.1,0.1-0.2
					c0.1-0.1,0.2-0.1,0.3-0.1c0.1,0,0.2,0,0.3,0.1c0.1,0.1,0.1,0.2,0.1,0.3C1027.9,20.9,1027.8,21.1,1027.6,21.1z"/>
				<path fill="#FFFFFF" d="M1032.3,21.7h2c0.2,0,0.4,0.1,0.6,0.2c0.2,0.1,0.3,0.2,0.4,0.4c0.1,0.2,0.2,0.4,0.2,0.6v4.1h-1v-4.5
					h-0.9v4.5h-1v-4.5h-0.4V21.7z"/>
				<path fill="#FFFFFF" d="M1040,26c0.2,0,0.3,0.1,0.4,0.2c0.1,0.1,0.1,0.2,0.1,0.4c0,0.2,0,0.4-0.1,0.6c-0.1,0.2-0.2,0.3-0.4,0.3
					h-0.1v-0.4c-0.2-0.1-0.3-0.2-0.3-0.5c0-0.1,0-0.2,0.1-0.3C1039.7,26.1,1039.8,26,1040,26z"/>
				<path fill="#FFFFFF" d="M1047.3,22.9v2.9c0,0.3-0.1,0.6-0.3,0.8c-0.2,0.2-0.5,0.4-0.8,0.4h-0.5c-0.2,0-0.4-0.1-0.6-0.2
					c-0.2-0.1-0.3-0.2-0.4-0.4c-0.1-0.2-0.2-0.4-0.2-0.6v-6.4h1v2.4h0.7c0.2,0,0.4,0,0.5,0.1c0.2,0.1,0.3,0.2,0.4,0.4
					C1047.2,22.5,1047.3,22.7,1047.3,22.9z M1045.4,22.4v3.9h1v-3.9H1045.4z"/>
				<path fill="#FFFFFF" d="M1054.6,26.9h-2.1c-0.3,0-0.6-0.1-0.8-0.3c-0.2-0.2-0.3-0.5-0.3-0.8v-4.1h1v4.5h0.9v-4.5h0.9v4.5h0.4
					V26.9z"/>
				<path fill="#FFFFFF" d="M1061.3,21.7v7.6h-1.6c-0.2,0-0.4-0.1-0.6-0.2c-0.2-0.1-0.3-0.2-0.4-0.4c-0.1-0.2-0.2-0.4-0.2-0.6v-0.4
					h1v1h0.9v-1.7h-0.7c-0.2,0-0.4-0.1-0.6-0.2c-0.2-0.1-0.3-0.2-0.4-0.4c-0.1-0.2-0.2-0.4-0.2-0.6V23c0-0.2,0-0.4,0.1-0.6
					c0.1-0.2,0.2-0.4,0.4-0.5c0.2-0.1,0.4-0.2,0.6-0.2H1061.3z M1060.4,26.3v-3.9h-0.9v3.9H1060.4z"/>
				<path fill="#FFFFFF" d="M1068.6,26.9h-2.1c-0.3,0-0.6-0.1-0.8-0.3c-0.2-0.2-0.3-0.5-0.3-0.8v-4.1h1v4.5h0.9v-4.5h0.9v4.5h0.4
					V26.9z M1066.3,21.1c-0.1,0-0.1,0-0.1,0c-0.2,0-0.3-0.1-0.4-0.3c0,0,0-0.1,0-0.2c0-0.1,0-0.1,0-0.2c0-0.1,0.1-0.1,0.1-0.2
					c0.1-0.1,0.2-0.1,0.4-0.1c0.1,0,0.2,0,0.3,0.1c0.1,0.1,0.1,0.2,0.1,0.3C1066.7,20.9,1066.5,21.1,1066.3,21.1z M1067.7,21.1
					c-0.1,0-0.1,0-0.1,0c-0.2,0-0.3-0.1-0.3-0.1c0-0.1-0.1-0.2-0.2-0.4c0-0.1,0-0.1,0-0.2c0-0.1,0.1-0.1,0.1-0.2
					c0.1-0.1,0.2-0.1,0.3-0.1c0.1,0,0.2,0,0.3,0.1c0.1,0.1,0.1,0.2,0.1,0.3C1068,20.9,1067.9,21.1,1067.7,21.1z"/>
				<path fill="#FFFFFF" d="M1072.4,21.7h2c0.2,0,0.4,0.1,0.6,0.2c0.2,0.1,0.3,0.2,0.4,0.4c0.1,0.2,0.2,0.4,0.2,0.6v4.1h-1v-4.5
					h-0.9v4.5h-1v-4.5h-0.4V21.7z"/>
				<path fill="#FFFFFF" d="M1080.1,26c0.2,0,0.3,0.1,0.4,0.2c0.1,0.1,0.1,0.2,0.1,0.4c0,0.2,0,0.4-0.1,0.6
					c-0.1,0.2-0.2,0.3-0.4,0.3h-0.1v-0.4c-0.2-0.1-0.3-0.2-0.3-0.5c0-0.1,0-0.2,0.1-0.3C1079.8,26.1,1079.9,26,1080.1,26z"/>
				<path fill="#FFFFFF" d="M1087.4,21.7l0,6.4c0,0.2-0.1,0.4-0.2,0.6c-0.1,0.2-0.3,0.3-0.4,0.4c-0.2,0.1-0.4,0.2-0.6,0.2h-1.7v-1.5
					h1v0.9h0.9v-1.7h-0.7c-0.2,0-0.4-0.1-0.6-0.2c-0.2-0.1-0.3-0.2-0.4-0.4c-0.1-0.2-0.2-0.4-0.2-0.6v-4.1h1v4.5h0.9v-4.5H1087.4z"
					/>
				<path fill="#FFFFFF" d="M1092.7,23.5l0.7,0v-1.1h-1.5c0.1-0.2,0.1-0.3,0.3-0.4c0.1-0.1,0.2-0.2,0.4-0.2c0.1,0,0.3,0,0.5,0h1.3
					v4.5h0.5v0.7h-2.1c-0.2,0-0.4-0.1-0.6-0.2c-0.2-0.1-0.3-0.3-0.4-0.4c-0.1-0.2-0.2-0.4-0.2-0.5v-1.2c0-0.2,0.1-0.4,0.2-0.5
					c0.1-0.2,0.3-0.3,0.4-0.4C1092.3,23.5,1092.5,23.5,1092.7,23.5z M1093.4,26.3v-2.1h-0.9v2.1H1093.4z"/>
				<path fill="#FFFFFF" d="M1101.5,21.7v1.7h-0.9v-1.1h-0.9v4.5h-1v-4.1c0-0.2,0.1-0.4,0.2-0.5c0.1-0.2,0.3-0.3,0.4-0.4
					c0.2-0.1,0.4-0.2,0.6-0.2H1101.5z"/>
				<path fill="#FFFFFF" d="M1106.5,22.6v4.3h-1v-5.2c0.3,0,0.5,0.1,0.7,0.3C1106.4,22.2,1106.5,22.4,1106.5,22.6z"/>
				<path fill="#FFFFFF" d="M1110.5,21.7h2c0.2,0,0.4,0.1,0.6,0.2c0.2,0.1,0.3,0.2,0.4,0.4c0.1,0.2,0.2,0.4,0.2,0.6v4.1h-1v-4.5
					h-0.9v4.5h-1v-4.5h-0.4V21.7z"/>
			</g>
		</g>
		<g>
			<path fill="#FFFFFF" d="M1027.5,62.4c0.5-0.2,0.9,0.1,1.4,0.9c0.4,0.8,0.7,1.7,0.8,2.7c0.1,1-0.1,2-0.4,3
				c-0.4,0.9-1.1,1.6-2.3,1.9c-0.5,0.1-1,0.1-1.4,0.1c-0.5,0-1-0.1-1.7-0.4c-4.2-1.9-7.8-4.9-10.8-9c-3-4.1-5.5-8.2-7.5-12.4
				c-0.2-0.3-0.5-0.8-0.8-1.5c-0.3-0.7-0.7-0.8-1.2-0.2c-0.8,2-1.5,4-2.2,5.9c-0.7,1.9-1.2,3.3-1.5,4.1c-0.3,1-0.8,1.8-1.4,2.2
				c-0.7,0.4-1.3,0.6-1.9,0.4c-0.6-0.1-1-0.6-1.4-1.3c-0.3-0.7-0.3-1.7,0.1-3.1c0.5-1.5,1.2-3.5,2.1-5.9c0.9-2.4,1.9-5,2.9-7.8
				c1-2.8,2.1-5.6,3.3-8.5c1.1-2.9,2.2-5.4,3.1-7.7c0.9-2.3,1.7-4.2,2.3-5.6c0.6-1.5,0.9-2.3,0.9-2.3c0.4-0.5,0.9-0.8,1.6-1.1
				c0.7-0.2,1.4-0.3,2.1-0.1c1.1,0.2,1.9,0.5,2.4,1c0.6,0.5,0.8,1,0.7,1.6c-0.1,0.6-0.4,1.4-0.9,2.5c-0.8,1.6-1.6,3.4-2.6,5.3
				c-1,1.9-2,3.8-2.9,5.6c-1,1.8-1.8,3.4-2.6,4.8c-0.8,1.4-1.2,2.3-1.3,2.6c0,0.2-0.1,0.4-0.1,0.6c-0.1,0.2-0.2,0.4-0.3,0.6
				c-0.1,0.2-0.2,0.5-0.3,0.8c1.5-0.5,3.2-1.3,5.1-2.6c1.9-1.2,3.2-2.9,4-5.1c0.3-0.3,0.1-0.5-0.4-0.6c-0.2-0.1-0.4-0.1-0.6-0.1
				c-0.2,0-0.4,0-0.6-0.1c-0.1-0.1-0.1-0.2,0-0.4c0.1-0.1,0.2-0.2,0.3-0.2c0.6-0.3,1.3-0.3,2.1-0.1c0.9,0.2,1.6,0.5,2.4,1.1
				c0.7,0.5,1.3,1.2,1.7,1.9c0.4,0.8,0.5,1.5,0.4,2.3c-0.1,0.2-0.2,0.4-0.2,0.6c0,0.2-0.2,0.4-0.4,0.6c-1.1,2.4-2.9,4.2-5.2,5.5
				c-2.3,1.3-4.7,2.2-7.2,2.6c0.3,1,1.1,2.4,2.4,4.3c1.3,1.9,2.9,3.8,4.7,5.7c1.8,1.9,3.6,3.4,5.5,4.7c1.9,1.3,3.5,1.8,4.9,1.5
				c0.5-0.1,0.9-0.3,1.4-0.6C1026.6,62.8,1027.1,62.6,1027.5,62.4z"/>
			<path fill="#FFFFFF" d="M1041.5,41.9c0.7,0,1,0.3,1,0.9c0,0.4-0.1,0.8-0.4,1.1c-0.6,1-1.3,2.4-2.3,4.3c-1,1.9-2,3.8-3.1,5.6
				c-1.1,1.8-2.3,3.4-3.4,4.7c-1.1,1.3-2.1,1.8-3,1.5c-0.5-0.2-0.9-0.7-1.3-1.4c-0.4-0.8-0.7-2.1-0.8-4l-0.1-0.1
				c-0.8,1.1-1.7,2.3-2.8,3.6c-1.1,1.2-2.3,1.9-3.6,2c-2.1,0.1-3.6-0.5-4.6-1.8c-1-1.3-1.4-2.9-1.4-4.8c0-1.9,0.4-4.1,1.2-6.5
				c0.8-2.4,1.9-4.6,3.3-6.6c1.4-2,3-3.7,4.8-5c1.8-1.3,3.7-2,5.7-2c1.9,0,3,1.3,3.3,4c0.5-0.8,1.1-1.6,1.8-2.6
				c0.7-1,1.6-1.4,2.6-1.4c0.5,0,1.1,0.2,1.8,0.6c0.8,0.4,1,0.9,0.7,1.4c-0.7,1-1.7,3-3,5.9c-1.3,2.9-2.9,6.8-4.6,11.6
				c-0.2,0.2-0.3,0.4-0.3,0.7c-0.2,0.7-0.1,0.9,0.3,0.7c0.2,0,0.6-0.5,1.4-1.6c0.7-1,1.5-2.3,2.3-3.7c0.9-1.4,1.7-2.8,2.6-4.2
				C1040.4,43.4,1041,42.4,1041.5,41.9z M1020.7,56.4c0.7,0.6,1.6,0.3,2.8-0.7c1.2-1,2.5-2.4,3.7-4.2c1.2-1.8,2.4-3.6,3.4-5.6
				c1-1.9,1.6-3.6,1.9-4.9c0-0.2-0.1-0.5-0.3-1c-0.2-0.5-0.5-0.9-0.9-1.2c-0.4-0.3-0.9-0.5-1.5-0.6c-0.6-0.1-1.4,0.1-2.4,0.7
				c-1.3,0.8-2.5,1.7-3.5,2.9c-1,1.2-1.9,2.8-2.8,4.9c-0.3,0.9-0.6,1.8-0.9,2.7c-0.3,0.9-0.5,1.9-0.6,2.9c-0.1,0.9-0.1,1.8,0,2.5
				C1019.9,55.5,1020.2,56,1020.7,56.4z"/>
			<path fill="#FFFFFF" d="M1062.3,42.6c0.6-0.1,0.9,0,1.1,0.4c0.2,0.3,0,0.9-0.4,1.6c-0.8,1-1.5,2.2-2.3,3.6
				c-0.8,1.3-1.5,2.7-2.3,4.1c-0.8,1.4-1.5,2.8-2.3,4c-0.8,1.2-1.6,2.2-2.4,3c-0.4,0.3-0.9,0.5-1.6,0.6c-0.7,0.1-1-0.2-1.1-1
				l-0.3,0.6c-1.5,3.9-3,7.6-4.5,11c-1.5,3.5-2.6,6.2-3.5,8.1c-1,2.3-2.2,3.9-3.6,4.8c-1.3,1-2.5,1.3-3.6,1
				c-1.2-0.4-1.9-1.6-1.9-3.7v-2.7c0-0.2,0-0.4,0.1-0.6c0-0.2,0.1-0.4,0.1-0.6c0-0.5,0-0.9,0.1-1.3c0.2-0.9,0.4-1.8,0.6-2.7
				c0.2-0.9,0.6-1.9,1.1-3c0.2-0.3,0.3-0.6,0.4-0.8c0.1-0.2,0.2-0.5,0.3-0.8l1-1.4c0.7-1.1,1.4-2.1,2.1-2.9c0.8-0.9,1.6-1.7,2.4-2.4
				c0.9-0.8,1.8-1.4,2.7-2l2-1.3c0.1-0.1,0.2-0.5,0.4-1.3c-0.7,0.8-1.2,1.2-1.7,1.4c-0.5,0.1-1,0.2-1.6,0.2c-1.8,0-3-0.6-3.7-1.7
				c-0.7-1.1-1-2.5-1-4.2c0-1.7,0.3-3.5,0.8-5.5c0.5-2,1.1-3.8,1.6-5.6l2.9-7.4c0.4-0.6,0.9-1,1.5-1.2c0.6-0.2,1.2-0.3,1.8-0.3
				c0.6,0,1.2,0.2,1.6,0.5c0.5,0.3,0.8,0.7,0.9,1.3c0.2,0.4,0,0.8-0.4,1.3c-0.5,0.4-1,1.1-1.6,2.1c-0.6,1-1.1,2.2-1.6,3.6l-1.4,4
				c-0.2,0.6-0.4,1.4-0.7,2.4c-0.3,1-0.5,2.1-0.6,3.2c-0.1,1.1-0.1,2,0,2.8c0.1,0.8,0.5,1.1,1.1,1.1c0.4,0,1-0.3,1.8-0.9
				c0.8-0.6,1.6-1.5,2.4-2.8c0.2-0.4,0.6-1.5,1.4-3.2c0.7-1.8,1.4-3.6,2.2-5.6c0.8-2,1.8-4.7,3-8c0.3-0.5,0.7-0.8,1.4-1.1
				c0.6-0.2,1.3-0.3,1.9-0.2c0.7,0.1,1.2,0.3,1.7,0.6c0.5,0.3,0.7,0.7,0.6,1.1c0.1,0,0.1,0,0.1,0.1c0,0.4-0.2,0.8-0.6,1.1
				c-0.5,0.6-0.9,1.3-1.3,2.1l-3.6,8.3l-2.8,7c-0.2,0.7-0.4,1.3-0.5,1.9c-0.1,0.6-0.2,0.9-0.1,1c0.3,0,0.6-0.3,1-1
				c0.4-0.7,0.6-1,0.7-1c0.1-0.1,0.5-0.7,1.1-1.7c0.6-1,1.4-2.2,2.2-3.6c0.9-1.3,1.7-2.6,2.6-3.9C1061,43.9,1061.7,43.1,1062.3,42.6
				z M1037.5,78.9c0.3-0.1,0.7-0.7,1.4-1.9c0.6-1.1,1.3-2.6,2.1-4.3c0.8-1.7,1.6-3.6,2.4-5.8c0.9-2.1,1.7-4.2,2.4-6.2l-0.6,0.4
				c-1.5,1.3-2.9,2.8-4,4.4c-0.3,0.5-0.6,0.9-0.9,1.3c-0.3,0.4-0.5,0.8-0.7,1.3l-0.6,1.3l-0.6,1.3c0,0.1,0,0.2-0.1,0.3
				c0,0.1-0.1,0.2-0.1,0.3l-0.3,0.6c0,0.3,0,0.5-0.1,0.7c0,0.3,0,0.5-0.1,0.6c0,0.2,0,0.4-0.1,0.6c0,0.2-0.1,0.4-0.1,0.6
				c0,0.5,0,0.9-0.1,1.1v1c0,0.2,0,0.4-0.1,0.7c0,0.3-0.1,0.5-0.1,0.7v1.1C1037.4,79,1037.4,78.9,1037.5,78.9z"/>
			<path fill="#FFFFFF" d="M1069.1,35.6c0.9,2.5,1.6,4.7,2.3,6.8c0.7,2.1,1.1,4.1,1.3,6.1c0.1,1.2,0,2.5-0.2,3.9
				c-0.2,1.4-0.7,2.6-1.3,3.8c-0.6,1.1-1.5,2.1-2.6,2.8c-1.1,0.7-2.4,1.1-4.1,1.1c-1,0-1.9-0.2-2.7-0.5c-0.9-0.3-1.5-1-2-2.1
				c-0.9-1.9-0.9-4,0-6.3c0.1-0.2,0.2-0.3,0.4-0.4c0.2-0.1,0.4-0.1,0.6-0.1c0.2,0.1,0.4,0.2,0.5,0.2c0.1,0.1,0.2,0.6,0.1,1.5
				c-0.1,0.7,0.1,1.4,0.5,2.4c0.4,0.9,1.2,1.4,2.2,1.6c0.8,0.1,1.3,0,1.6-0.1c0.3-0.2,0.6-0.4,0.8-0.6c1-0.9,1.7-2,1.9-3.4
				c0.2-1.4,0.3-3.1,0.1-5c-0.2-1.5-0.6-3.1-1.1-4.7c-0.6-1.6-0.9-2.5-1.1-2.6c0.1,0,0.1,0.1,0,0.1c-0.6,1-1.4,2.3-2.4,3.9
				c-1,1.7-2.1,3.3-3.2,5c-1.1,1.7-2.1,3.2-3.1,4.6c-1,1.4-1.6,2.3-1.9,2.6c-0.3,0.5-0.6,0.7-1,0.8c-0.4,0.1-0.6-0.6-0.7-1.9V55
				c0-0.1,0.5-0.9,1.4-2.5c1-1.6,2.1-3.4,3.4-5.4c1.3-2,2.6-4,3.8-5.9c1.3-1.9,2.2-3.3,2.8-4.1c0-0.1,0-0.2-0.1-0.3
				c-0.6-1.7-0.8-2.9-0.7-3.6c0.1-0.7,0.3-1.2,0.6-1.7c0.4-0.6,0.9-0.9,1.6-1.1c0.7-0.1,1.4,0,1.9,0.3c0.6,0.3,0.9,0.9,1.1,1.7
				C1070,33.2,1069.8,34.3,1069.1,35.6z M1068,34.3c0.5-1.3,0.5-2,0.1-2.1c-0.4,0-0.6,0-0.6,0.2v0.4
				C1067.6,33.3,1067.7,33.7,1068,34.3z"/>
			<path fill="#FFFFFF" d="M1095.5,43.1c0.1,0,0.1,0,0.1-0.1c0,0,0-0.1,0.1-0.1c0.4,0,0.6,0.2,0.6,0.7c0,0.5-0.2,1-0.6,1.4
				c-1.1,1.6-2.5,3.3-4,5.1c-1.5,1.8-3,3.4-4.6,4.8c-1.5,1.4-3,2.6-4.3,3.6c-1.4,1-2.5,1.5-3.4,1.5c-2.1,0-3.6-0.9-4.5-2.6
				c-0.9-1.7-1.4-3.6-1.4-5.6c0-1.8,0.4-3.8,1.1-5.9c0.8-2.1,1.8-4.2,3.1-6.1c1.3-1.9,2.9-3.5,4.7-4.8c1.8-1.3,3.8-1.9,5.8-1.9
				c2.9,0,4.3,1.4,4.3,4.1c0,0.9-0.2,2.1-0.6,3.4c-0.4,1.3-1,2.5-1.9,3.7c-0.8,1.2-1.8,2.2-2.9,3.1c-1.1,0.9-2.4,1.3-3.7,1.3
				c-0.9,0-1.7-0.2-2.5-0.5c-0.8-0.3-1.4-0.9-1.9-1.6c-0.2,0.6-0.5,1.5-0.9,2.7c-0.4,1.3-0.6,2.6-0.6,3.9c0,0.9,0.2,1.7,0.5,2.3
				c0.3,0.6,0.9,0.9,1.8,0.9c0.7,0,1.7-0.5,3.1-1.6c1.4-1.1,2.8-2.4,4.4-3.9c1.6-1.5,3.1-3,4.5-4.5
				C1093.5,45,1094.7,43.9,1095.5,43.1z M1082.4,41.4c-0.5,0.5-0.9,1-1.3,1.6c-0.4,0.6-0.8,1.3-1.1,2.1c0.8,0.7,1.3,1.1,1.7,1.2
				c0.4,0.1,0.8,0.2,1.1,0.2c0.8,0,1.5-0.3,2.1-0.9c0.7-0.6,1.2-1.2,1.7-1.9c0.5-0.7,0.8-1.4,1.1-2.1c0.2-0.7,0.4-1.2,0.4-1.5
				c0-0.9-0.4-1.5-1.3-1.7c-0.7,0-1.4,0.3-2.1,0.9C1083.9,39.9,1083.2,40.6,1082.4,41.4z"/>
			<path fill="#FFFFFF" d="M1113.7,39.4c0.8-0.1,0.9,0.6,0.3,2c-2,2.2-3.5,3.9-4.4,5.1c-1,1.2-1.8,2.1-2.4,2.6
				c-0.6,0.5-1.1,0.5-1.7,0.1c-0.6-0.4-0.8-1.2-0.7-2.2c0.1-1,0.2-2.2,0.4-3.5c0.1-1.3,0.4-2.8,0.6-4.5c0-0.4-0.1-0.6-0.3-0.6
				c-0.1-0.1-0.2,0-0.3,0.1c-0.1,0.2-0.2,0.4-0.3,0.6c-0.7,1-1.6,2.5-2.8,4.6c-1.2,2.1-2.4,4.2-3.6,6.3c-1.2,2.1-2.4,4.1-3.4,5.9
				c-1,1.8-1.6,2.9-1.9,3.3c-0.4,0.5-1,0.8-1.9,0.9c-0.9,0.1-1.4-0.6-1.4-2V58h0.1c0-0.7,0.1-1.2,0.3-1.7c0-0.2,0.1-0.4,0.1-0.7
				c0.1-0.3,0.2-0.6,0.3-0.9c0.6-2.4,1.2-4.7,2-7.1c0.8-2.3,1.5-4.4,2.1-6.3c0.6-1.9,1.2-3.5,1.7-4.8c0.5-1.3,0.9-2.1,1.1-2.3
				c0.3-0.6,0.7-1,1.3-1.2c0.6-0.2,1.2-0.3,1.9-0.3c0.6,0,1.2,0.2,1.7,0.5c0.5,0.3,0.8,0.7,0.9,1.3c0,0.2,0,0.4-0.1,0.6
				c-0.1,0.2-0.2,0.5-0.4,0.6c-0.5,0.4-1,1.1-1.6,2.1c-0.6,1-1.1,2.2-1.6,3.6c-0.1,0.3-0.2,0.6-0.3,0.9c-0.1,0.3-0.2,0.6-0.3,1
				c1.1-1.9,2.3-3.8,3.6-5.6c1.3-1.9,2.1-2.9,2.5-3.2c0.5-0.5,1-0.8,1.7-1.1c0.7-0.2,1.3-0.3,1.8-0.1c0.5,0.1,0.9,0.5,1.3,1
				c0.3,0.5,0.4,1.2,0.2,2.1c-0.2,0.8-0.4,1.6-0.6,2.6c-0.2,1-0.5,1.9-0.7,2.9c-0.2,0.9-0.5,1.7-0.7,2.5c-0.2,0.8-0.4,1.2-0.4,1.3
				c-0.1,0.4-0.1,0.5,0,0.4c0.1-0.1,0.2-0.2,0.4-0.3c0.3-0.4,1-1.3,2.1-2.6C1111.6,41.7,1112.7,40.5,1113.7,39.4z"/>
			<path fill="#FFFFFF" d="M1122.6,43.7c-0.9,1.1-1.8,2.6-2.9,4.3c-1.1,1.7-2.2,3.4-3.2,5c-1,1.6-2,3.1-2.8,4.3
				c-0.9,1.3-1.6,2.1-2.1,2.5c-0.8,0.5-1.6,0.6-2.6,0.4c-1-0.2-1.6-0.9-1.8-1.9c-0.4-2.8,0.1-6.2,1.4-9.9c1.3-3.8,2.9-8,4.8-12.9
				c0.4-0.9,1-1.5,1.7-1.8c0.8-0.2,1.5-0.2,2.2,0c0.7,0.2,1.3,0.7,1.6,1.3c0.4,0.6,0.4,1.3,0,1.9c-1,1.8-2,3.7-3,5.8
				c-1,2-1.8,3.9-2.4,5.7c-0.7,1.8-1.1,3.2-1.4,4.3c-0.3,1.1-0.2,1.6,0.3,1.5c0.5-0.4,1.1-1.1,1.9-2.1c0.8-1,1.6-2.2,2.5-3.5
				c0.9-1.3,1.7-2.6,2.6-3.9c0.9-1.3,1.7-2.5,2.3-3.4c0.8-0.1,1.3,0.1,1.6,0.5C1123.6,42.1,1123.3,42.8,1122.6,43.7z"/>
		</g>
		<g>
			<path fill="#FFFFFF" d="M1154.9,42c0.5-0.1,0.8,0,1,0.4c0.2,0.3,0,0.9-0.4,1.6c-1.6,2.9-3,5.2-4.1,7.1c-1.1,1.9-2.5,3.9-4,6.2
				c-1,1.5-1.9,2.4-2.6,2.6c-0.7,0.2-1.4,0.3-1.9,0.2c-0.7-0.2-1.2-0.5-1.6-0.9c-0.4-0.4-0.6-1.3-0.7-2.5c0-1.2,0.1-2.6,0.4-4.1
				c0.2-1.5,0.6-3.1,1-4.6c0.4-1.6,0.9-3,1.5-4.4c0.6-1.4,1.1-2.5,1.6-3.3c-1,1.3-1.9,2.8-3,4.4c-1,1.6-2,3.2-3,4.7
				c-0.9,1.5-1.8,2.9-2.6,4.1c-0.8,1.2-1.3,2.2-1.7,2.8c-1,1.4-1.9,2.4-2.5,3c-0.6,0.6-1.3,0.9-2.1,0.9c-0.7-0.2-1.2-0.5-1.6-0.9
				c-0.4-0.4-0.4-1.4-0.1-3c0.2-1.3,0.6-3.3,1.1-5.8c0.6-2.5,1.4-5,2.4-7.5c0.2-0.7,0.1-0.7-0.3-0.1c-1.1,1.5-2.4,3.2-3.6,5.1
				c-1.3,1.9-2.5,3.7-3.6,5.3c-1.1,1.7-2,3.1-2.9,4.3c-0.8,1.2-1.3,1.8-1.4,1.9c-0.8,0.7-1.7,0.8-2.8,0.5c-1.1-0.3-1.6-0.9-1.5-1.8
				c0.6-2.6,1.3-5.2,2.1-7.8c0.8-2.7,1.6-5.1,2.4-7.4c0.8-2.3,1.5-4.2,2.2-5.7c0.7-1.5,1.1-2.4,1.3-2.7c0.4-0.6,0.9-1,1.6-1.2
				c0.7-0.2,1.3-0.4,2-0.4c0.7,0,1.3,0.1,1.8,0.4c0.5,0.3,0.8,0.7,0.9,1.3c0.1,0.5,0,0.9-0.4,1.3c-0.8,0.5-1.4,1.1-1.9,2
				c-0.5,0.9-1,1.8-1.4,2.8c-0.4,1-0.7,2-1,2.9c-0.3,1-0.5,1.7-0.7,2.3c1-1.5,2.2-3.3,3.4-5.2c1.2-1.9,2.5-3.8,3.8-5.5
				c0.6-0.8,1.3-1.3,2.1-1.6c0.8-0.3,1.6-0.4,2.3-0.3c0.7,0.1,1.3,0.5,1.6,1.2c0.4,0.7,0.4,1.6,0.1,2.9c-0.1,0.6-0.3,1.4-0.7,2.5
				c-0.4,1.1-0.8,2.3-1.2,3.6c-0.4,1.3-0.9,2.6-1.3,3.9c-0.4,1.3-0.7,2.3-0.9,3.1v0.1c0.4-0.4,0.8-0.9,1.2-1.6
				c0.4-0.7,0.9-1.4,1.4-2.1c0.6-1,1.4-2.3,2.6-4.1c1.1-1.8,2.5-3.6,4-5.5c1.6-2.2,2.9-3.5,4-3.8c1-0.4,2-0.3,3,0.1
				c0.8,0.5,1.2,1.1,1.4,1.9c0.1,0.8-0.2,2-1.1,3.7c-1,2-2.1,4.1-3.1,6.3c-1,2.2-1.8,4.8-2.3,7.7c0,0.3,0,0.7,0,1.1
				c0,0.5,0.1,0.7,0.4,0.7c0.3,0,0.6-0.2,1-0.6c0.4-0.4,0.8-0.9,1.1-1.5c0.4-0.6,0.7-1.1,1-1.6c0.3-0.5,0.5-0.9,0.7-1.2
				c1-1.4,2-3,3.2-4.8C1153.8,43.5,1154.5,42.4,1154.9,42z"/>
			<path fill="#FFFFFF" d="M1123.3,23.2c-0.6-0.5-1.1-0.8-1.8-0.9c-0.3-0.1-0.9,0.2-1.2,0.8c0,0.1-0.1,0.2-0.1,0.3
				c-0.1-0.8-0.6-1.2-0.9-1.2c-0.8-0.1-1.3-0.2-2,0.1c-0.7,0.3-1.1,0.8-1.2,1.4c0,0.1,0,0.2,0,0.3c-0.1,0.5-0.1,1.3,0.5,2.2
				c0.8,1.4,0.9,2.2,0.9,2.7c-0.3,0.3-0.6,0.5-1,0.7c0.5,0.3,1,0.4,1.6,0.3c0.6-0.1,1.1-0.3,1.7-0.6c0.5-0.3,1-0.6,1.5-1.1
				c0.5-0.4,0.8-0.7,1.1-1c0.9-0.8,1.4-1.6,1.5-2.3C1123.9,24.3,1123.8,23.7,1123.3,23.2z"/>
		</g>
	</g>
</g>
<g id="logo_x5F_icon">
	<g>
		<linearGradient id="SVGID_3_" gradientUnits="userSpaceOnUse" x1="36.9333" y1="68.6504" x2="120.8665" y2="68.6504">
			<stop  offset="1.123600e-02" style="stop-color:#ED1C24"/>
			<stop  offset="0.5" style="stop-color:#AB0F14"/>
			<stop  offset="0.9944" style="stop-color:#670000"/>
		</linearGradient>
		<path fill="url(#SVGID_3_)" d="M120.9,108.3H47.9c-6.1,0-11-4.9-11-11V40.9c0-6.6,5.3-11.9,11.9-11.9h72V108.3z"/>
		<path fill="#ED2224" d="M118.4,105.8H45.4c-6.1,0-11-4.9-11-11V38.4c0-6.6,5.3-11.9,11.9-11.9h72V105.8z"/>
		<g>
			<path fill="#FFFFFF" d="M108.2,66.7c0.8-0.1,1.3,0,1.6,0.6c0.3,0.5,0.1,1.4-0.7,2.6c-2.6,4.6-4.8,8.4-6.6,11.3
				c-1.8,3-4,6.3-6.4,9.9c-1.7,2.4-3.1,3.9-4.2,4.2c-1.1,0.4-2.2,0.5-3.1,0.3c-1.1-0.3-1.9-0.8-2.5-1.5c-0.6-0.7-1-2-1.1-4
				c0-2,0.2-4.2,0.6-6.6c0.4-2.4,0.9-4.9,1.6-7.4c0.7-2.5,1.5-4.9,2.4-7.1c0.9-2.2,1.8-4,2.5-5.4c-1.5,2.1-3.1,4.5-4.8,7.1
				c-1.7,2.6-3.3,5.1-4.8,7.5c-1.5,2.4-2.9,4.7-4.1,6.6c-1.2,2-2.1,3.5-2.7,4.6c-1.7,2.3-3,3.9-4,4.8c-1,0.9-2.1,1.4-3.3,1.4
				c-1.1-0.3-1.9-0.8-2.5-1.4c-0.6-0.6-0.7-2.2-0.2-4.8c0.3-2.1,0.9-5.2,1.8-9.3c0.9-4,2.2-8,3.9-12c0.3-1.1,0.1-1.1-0.5-0.2
				c-1.8,2.4-3.8,5.2-5.8,8.2c-2.1,3.1-4,5.9-5.7,8.6c-1.8,2.7-3.3,5-4.6,6.9c-1.3,1.9-2,2.9-2.2,3.1c-1.2,1.1-2.7,1.3-4.5,0.8
				c-1.7-0.5-2.5-1.5-2.4-2.9c0.9-4.1,2-8.3,3.3-12.6c1.3-4.3,2.6-8.2,3.9-11.9c1.3-3.7,2.5-6.7,3.5-9.1c1.1-2.4,1.8-3.9,2.1-4.3
				c0.6-0.9,1.4-1.6,2.5-1.9c1.1-0.4,2.1-0.6,3.2-0.6c1.1,0,2,0.2,2.9,0.7c0.8,0.5,1.3,1.1,1.5,2.1c0.1,0.8-0.1,1.5-0.7,2.1
				c-1.2,0.8-2.3,1.8-3.1,3.2c-0.8,1.4-1.6,2.9-2.2,4.5c-0.6,1.6-1.1,3.2-1.6,4.7c-0.5,1.5-0.8,2.7-1.1,3.7c1.7-2.4,3.5-5.2,5.5-8.3
				c2-3.1,4-6.1,6.2-8.8c0.9-1.2,2-2.1,3.3-2.6c1.3-0.5,2.5-0.7,3.7-0.5c1.1,0.2,2,0.9,2.6,1.9c0.6,1.1,0.7,2.6,0.2,4.6
				c-0.1,0.9-0.5,2.2-1.1,4c-0.6,1.8-1.3,3.7-1.9,5.7c-0.7,2.1-1.4,4.1-2.1,6.2c-0.7,2.1-1.2,3.7-1.5,4.9v0.2
				c0.6-0.6,1.3-1.4,1.9-2.5c0.7-1.1,1.4-2.2,2.2-3.4c0.9-1.5,2.3-3.7,4.1-6.5c1.8-2.8,4-5.8,6.4-8.8c2.6-3.5,4.7-5.6,6.4-6.2
				c1.7-0.6,3.3-0.5,4.8,0.2c1.2,0.8,1.9,1.8,2.2,3c0.2,1.2-0.3,3.2-1.7,5.9c-1.7,3.2-3.4,6.6-5,10.1c-1.7,3.5-2.9,7.6-3.7,12.3
				c0,0.5,0,1.1,0,1.8c0,0.8,0.2,1.1,0.7,1.1c0.5,0,1-0.3,1.6-1c0.6-0.7,1.2-1.5,1.8-2.4c0.6-0.9,1.1-1.8,1.6-2.6
				c0.5-0.8,0.8-1.5,1.1-1.9c1.5-2.3,3.2-4.8,5.1-7.7C106.3,69,107.6,67.3,108.2,66.7z"/>
			<path fill="#FFFFFF" d="M57.4,36.5c-0.9-0.8-1.7-1.2-2.9-1.5C54,35,53,35.4,52.6,36.3c-0.1,0.1-0.1,0.3-0.2,0.4
				c-0.1-1.3-1-1.9-1.4-2c-1.2-0.2-2.1-0.2-3.2,0.2c-1.1,0.5-1.8,1.2-2,2.2c0,0.2,0,0.3,0,0.5c-0.1,0.9-0.1,2.1,0.7,3.5
				c1.3,2.3,1.5,3.6,1.4,4.4c-0.5,0.4-1,0.8-1.5,1.1c0.8,0.4,1.6,0.6,2.5,0.4c0.9-0.1,1.8-0.5,2.7-0.9c0.9-0.5,1.7-1,2.4-1.7
				c0.7-0.7,1.4-1.2,1.8-1.6c1.4-1.3,2.2-2.5,2.4-3.6C58.3,38.3,58.3,37.4,57.4,36.5z"/>
		</g>
	</g>
</g>
</svg>
