<?xml version="1.0" encoding="utf-8"?>
<!-- Generator: Adobe Illustrator 23.0.3, SVG Export Plug-In . SVG Version: 6.00 Build 0)  -->
<svg version="1.1" xmlns="http://www.w3.org/2000/svg" xmlns:xlink="http://www.w3.org/1999/xlink" x="0px" y="0px"
	 viewBox="0 0 1080 1080" enable-background="new 0 0 1080 1080" xml:space="preserve">
<g id="Layer_1">
</g>
<g id="arka_x5F_plan">
	<g>
		<defs>
			<rect id="SVGID_7_" x="0" width="1080" height="1080"/>
		</defs>
		<clipPath id="SVGID_2_">
			<use xlink:href="#SVGID_7_"  overflow="visible"/>
		</clipPath>
		<g clip-path="url(#SVGID_2_)">
			
				<image overflow="visible" width="1600" height="1066" xlink:href="{{GORSEL_URL}}"  transform="matrix(1.0159 0 0 1.0159 -163.2979 -1.4486)">
			</image>
		</g>
	</g>
</g>
<g id="graiden_x5F_overlay">
	<linearGradient id="SVGID_4_" gradientUnits="userSpaceOnUse" x1="541.5" y1="657.6407" x2="541.5" y2="1059.4364">
		<stop  offset="0" style="stop-color:#000000;stop-opacity:0"/>
		<stop  offset="0.4613" style="stop-color:#000000;stop-opacity:0.7"/>
		<stop  offset="1" style="stop-color:#000000"/>
	</linearGradient>
	<rect x="1" y="632" fill="url(#SVGID_4_)" width="1081" height="447"/>
</g>
<g id="ust_x5F_bant">
	<linearGradient id="SVGID_6_" gradientUnits="userSpaceOnUse" x1="-4.849062e-08" y1="45.5861" x2="1080" y2="45.5861">
		<stop  offset="1.123600e-02" style="stop-color:#ED1C24"/>
		<stop  offset="0.5" style="stop-color:#AB0F14"/>
		<stop  offset="0.9944" style="stop-color:#670000"/>
	</linearGradient>
	<rect x="0" fill="url(#SVGID_6_)" width="1080" height="91.2"/>
</g>
<g id="logo_x5F_text">
	<g>
		<g>
			<g>
				<path fill="#FFFFFF" d="M872,33.3v-3.7c0-0.2,0.1-0.5,0.2-0.7c0.1-0.2,0.3-0.4,0.6-0.5c0.2-0.1,0.5-0.2,0.7-0.2h0.9v-3h1.2v8.2
					c0,0.2-0.1,0.5-0.2,0.7c-0.1,0.2-0.3,0.4-0.6,0.5c-0.2,0.1-0.5,0.2-0.7,0.2h-0.7c-0.3,0-0.5-0.1-0.7-0.2
					c-0.2-0.1-0.4-0.3-0.5-0.6C872.1,33.8,872,33.6,872,33.3z M874.5,34V29h-1.2V34H874.5z"/>
				<path fill="#FFFFFF" d="M885,34.8h-2.7c-0.4,0-0.7-0.1-1-0.4c-0.3-0.3-0.4-0.6-0.4-1v-5.2h1.2V34h1.2v-5.8h1.2V34h0.5V34.8z
					 M882,27.4c-0.1,0-0.1,0-0.2,0c-0.3,0-0.4-0.2-0.5-0.4c0-0.1,0-0.1,0-0.2c0-0.1,0-0.2,0-0.2c0-0.1,0.1-0.1,0.1-0.2
					c0.1-0.1,0.3-0.2,0.5-0.2c0.2,0,0.3,0.1,0.4,0.2c0.1,0.1,0.2,0.3,0.2,0.4C882.5,27.1,882.3,27.3,882,27.4z M883.8,27.4
					c-0.1,0-0.1,0-0.2,0c-0.2,0-0.3-0.1-0.4-0.2c-0.1-0.1-0.1-0.2-0.2-0.5c0-0.1,0-0.2,0-0.2c0-0.1,0.1-0.1,0.1-0.2
					c0.1-0.1,0.3-0.2,0.4-0.2c0.2,0,0.3,0.1,0.4,0.2c0.1,0.1,0.2,0.3,0.2,0.4C884.2,27.1,884.1,27.3,883.8,27.4z"/>
				<path fill="#FFFFFF" d="M889.8,28.2h2.6c0.2,0,0.5,0.1,0.7,0.2c0.2,0.1,0.4,0.3,0.6,0.5c0.1,0.2,0.2,0.5,0.2,0.7v5.2h-1.2V29
					h-1.2v5.8h-1.2V29h-0.5V28.2z"/>
				<path fill="#FFFFFF" d="M899.6,33.6c0.2,0,0.4,0.1,0.5,0.2c0.1,0.1,0.2,0.3,0.2,0.4c0,0.2-0.1,0.5-0.2,0.7
					c-0.1,0.2-0.3,0.4-0.5,0.4h-0.2v-0.5c-0.3-0.1-0.4-0.3-0.4-0.6c0-0.1,0.1-0.3,0.2-0.4C899.3,33.7,899.4,33.6,899.6,33.6z"/>
				<path fill="#FFFFFF" d="M908.9,29.6v3.7c0,0.4-0.1,0.8-0.4,1.1c-0.3,0.3-0.6,0.4-1,0.4h-0.7c-0.2,0-0.5-0.1-0.7-0.2
					c-0.2-0.1-0.4-0.3-0.5-0.5c-0.1-0.2-0.2-0.5-0.2-0.7v-8.2h1.2v3h0.9c0.2,0,0.5,0.1,0.7,0.2c0.2,0.1,0.4,0.3,0.6,0.5
					C908.8,29.1,908.9,29.4,908.9,29.6z M906.5,29V34h1.2V29H906.5z"/>
				<path fill="#FFFFFF" d="M918.3,34.8h-2.7c-0.4,0-0.7-0.1-1-0.4c-0.3-0.3-0.4-0.6-0.4-1v-5.2h1.2V34h1.2v-5.8h1.2V34h0.5V34.8z"
					/>
				<path fill="#FFFFFF" d="M926.8,28.2v9.7h-2.1c-0.3,0-0.6-0.1-0.8-0.2c-0.2-0.1-0.4-0.3-0.5-0.6c-0.1-0.2-0.2-0.5-0.2-0.8v-0.6
					h1.2V37h1.2v-2.2h-0.9c-0.2,0-0.5-0.1-0.7-0.2c-0.2-0.1-0.4-0.3-0.6-0.5c-0.1-0.2-0.2-0.5-0.2-0.7v-3.6c0-0.3,0.1-0.5,0.2-0.8
					c0.1-0.2,0.3-0.4,0.5-0.6c0.2-0.1,0.5-0.2,0.8-0.2H926.8z M925.7,34V29h-1.2V34H925.7z"/>
				<path fill="#FFFFFF" d="M936.2,34.8h-2.7c-0.4,0-0.7-0.1-1-0.4c-0.3-0.3-0.4-0.6-0.4-1v-5.2h1.2V34h1.2v-5.8h1.2V34h0.5V34.8z
					 M933.2,27.4c-0.1,0-0.1,0-0.2,0c-0.3,0-0.4-0.2-0.5-0.4c0-0.1,0-0.1,0-0.2c0-0.1,0-0.2,0-0.2c0-0.1,0.1-0.1,0.1-0.2
					c0.1-0.1,0.3-0.2,0.4-0.2c0.2,0,0.3,0.1,0.4,0.2c0.1,0.1,0.2,0.3,0.2,0.4C933.7,27.1,933.5,27.3,933.2,27.4z M935,27.4
					c-0.1,0-0.1,0-0.2,0c-0.2,0-0.3-0.1-0.4-0.2c-0.1-0.1-0.1-0.2-0.2-0.5c0-0.1,0-0.2,0-0.2c0-0.1,0.1-0.1,0.1-0.2
					c0.1-0.1,0.3-0.2,0.4-0.2c0.2,0,0.3,0.1,0.4,0.2c0.1,0.1,0.2,0.3,0.2,0.4C935.4,27.1,935.3,27.3,935,27.4z"/>
				<path fill="#FFFFFF" d="M941,28.2h2.6c0.2,0,0.5,0.1,0.7,0.2c0.2,0.1,0.4,0.3,0.6,0.5c0.1,0.2,0.2,0.5,0.2,0.7v5.2h-1.2V29h-1.2
					v5.8h-1.2V29H941V28.2z"/>
				<path fill="#FFFFFF" d="M950.8,33.6c0.2,0,0.4,0.1,0.5,0.2c0.1,0.1,0.2,0.3,0.2,0.4c0,0.2-0.1,0.5-0.2,0.7
					c-0.1,0.2-0.3,0.4-0.5,0.4h-0.2v-0.5c-0.3-0.1-0.4-0.3-0.4-0.6c0-0.1,0.1-0.3,0.2-0.4C950.5,33.7,950.6,33.6,950.8,33.6z"/>
				<path fill="#FFFFFF" d="M960.2,28.2l0,8.2c0,0.2-0.1,0.5-0.2,0.7c-0.1,0.2-0.3,0.4-0.6,0.5c-0.2,0.1-0.5,0.2-0.7,0.2h-2.1v-1.9
					h1.2V37h1.2v-2.2h-0.9c-0.2,0-0.5-0.1-0.7-0.2c-0.2-0.1-0.4-0.3-0.6-0.5c-0.1-0.2-0.2-0.5-0.2-0.7v-5.2h1.2V34h1.2v-5.8H960.2z"
					/>
				<path fill="#FFFFFF" d="M966.9,30.4l0.9,0V29h-2c0.1-0.2,0.2-0.4,0.3-0.5c0.1-0.1,0.3-0.2,0.5-0.2c0.2,0,0.4-0.1,0.7-0.1h1.6V34
					h0.6v0.9h-2.7c-0.2,0-0.5-0.1-0.7-0.2c-0.2-0.1-0.4-0.3-0.5-0.6c-0.1-0.2-0.2-0.5-0.2-0.7v-1.6c0-0.2,0.1-0.5,0.2-0.7
					c0.1-0.2,0.3-0.4,0.6-0.5C966.4,30.5,966.7,30.4,966.9,30.4z M967.8,34v-2.7h-1.2V34H967.8z"/>
				<path fill="#FFFFFF" d="M978.2,28.2v2.2H977V29h-1.2v5.8h-1.2v-5.2c0-0.2,0.1-0.5,0.2-0.7c0.1-0.2,0.3-0.4,0.6-0.5
					c0.2-0.1,0.5-0.2,0.7-0.2H978.2z"/>
				<path fill="#FFFFFF" d="M984.6,29.3v5.5h-1.2v-6.6c0.4,0,0.7,0.1,0.9,0.3C984.5,28.7,984.6,29,984.6,29.3z"/>
				<path fill="#FFFFFF" d="M989.7,28.2h2.6c0.2,0,0.5,0.1,0.7,0.2c0.2,0.1,0.4,0.3,0.6,0.5c0.1,0.2,0.2,0.5,0.2,0.7v5.2h-1.2V29
					h-1.2v5.8h-1.2V29h-0.5V28.2z"/>
			</g>
		</g>
		<g>
			<path fill="#FFFFFF" d="M883.7,80.1c0.6-0.2,1.2,0.1,1.7,1.1c0.5,1,0.9,2.1,1,3.5c0.1,1.3-0.1,2.6-0.5,3.8
				c-0.5,1.2-1.5,2-2.9,2.4c-0.6,0.1-1.2,0.2-1.8,0.2c-0.6,0-1.3-0.2-2.2-0.5c-5.3-2.4-9.9-6.2-13.7-11.5c-3.8-5.2-7-10.5-9.6-15.8
				c-0.2-0.4-0.6-1-1-1.9s-0.9-1-1.5-0.3c-1,2.5-1.9,5.1-2.8,7.6c-0.9,2.5-1.5,4.2-1.9,5.2c-0.4,1.3-1,2.3-1.8,2.8
				c-0.9,0.5-1.6,0.7-2.4,0.5c-0.7-0.2-1.3-0.7-1.7-1.6c-0.4-0.9-0.4-2.2,0.1-3.9c0.6-1.9,1.5-4.5,2.6-7.6c1.2-3.1,2.4-6.4,3.7-10
				c1.3-3.6,2.7-7.2,4.2-10.8c1.5-3.6,2.8-6.9,3.9-9.8c1.1-2.9,2.1-5.3,2.9-7.2c0.8-1.9,1.2-2.9,1.2-3c0.5-0.6,1.1-1.1,2-1.4
				c0.8-0.3,1.8-0.3,2.7-0.1c1.5,0.2,2.5,0.7,3.1,1.3c0.7,0.6,1,1.3,0.9,2.1c-0.1,0.8-0.5,1.9-1.1,3.2c-1,2.1-2.1,4.3-3.4,6.8
				c-1.3,2.5-2.5,4.9-3.7,7.2c-1.2,2.3-2.3,4.3-3.3,6.1c-1,1.8-1.5,2.9-1.6,3.4c0,0.2-0.1,0.5-0.2,0.7c-0.1,0.2-0.2,0.5-0.4,0.8
				c-0.1,0.3-0.2,0.6-0.4,1c1.9-0.6,4.1-1.7,6.6-3.3c2.4-1.6,4.1-3.8,5.1-6.6c0.4-0.4,0.2-0.6-0.5-0.7c-0.2-0.1-0.5-0.2-0.7-0.2
				c-0.2,0-0.5-0.1-0.7-0.2c-0.1-0.1-0.1-0.3,0-0.5c0.1-0.2,0.2-0.3,0.4-0.3c0.7-0.4,1.6-0.4,2.7-0.2c1.1,0.2,2.1,0.7,3,1.4
				c0.9,0.7,1.6,1.5,2.2,2.5c0.5,1,0.7,1.9,0.5,2.9c-0.1,0.2-0.2,0.5-0.3,0.7c-0.1,0.2-0.2,0.5-0.5,0.7c-1.5,3-3.7,5.4-6.6,7
				c-3,1.6-6,2.8-9.2,3.4c0.4,1.2,1.4,3.1,3.1,5.6c1.7,2.5,3.7,4.9,6,7.3c2.3,2.4,4.6,4.4,7,6c2.4,1.6,4.5,2.3,6.3,1.9
				c0.6-0.1,1.2-0.4,1.8-0.7C882.5,80.6,883.1,80.3,883.7,80.1z"/>
			<path fill="#FFFFFF" d="M901.6,53.9c0.8,0,1.3,0.4,1.3,1.1c0,0.5-0.2,1-0.5,1.5c-0.7,1.2-1.7,3-2.9,5.5c-1.2,2.4-2.5,4.8-4,7.2
				c-1.5,2.4-2.9,4.4-4.4,6c-1.5,1.6-2.7,2.3-3.8,1.9c-0.6-0.2-1.2-0.8-1.7-1.8c-0.5-1-0.9-2.7-1-5.1l-0.2-0.2c-1,1.5-2.2,3-3.5,4.5
				c-1.4,1.6-2.9,2.4-4.6,2.5c-2.7,0.1-4.6-0.6-5.8-2.3c-1.2-1.6-1.8-3.7-1.8-6.2c0-2.5,0.5-5.2,1.5-8.3c1-3,2.4-5.8,4.2-8.4
				c1.8-2.6,3.8-4.7,6.1-6.4c2.3-1.7,4.7-2.5,7.3-2.5c2.4,0,3.8,1.7,4.2,5.1c0.6-1,1.4-2.1,2.3-3.3c0.9-1.2,2-1.8,3.4-1.8
				c0.6,0,1.4,0.3,2.4,0.8c1,0.5,1.3,1.1,0.9,1.7c-0.9,1.3-2.1,3.9-3.8,7.6c-1.7,3.7-3.6,8.6-5.8,14.8c-0.2,0.2-0.4,0.5-0.4,0.9
				c-0.2,0.9-0.1,1.2,0.4,0.9c0.2,0,0.8-0.7,1.7-2c0.9-1.3,1.9-2.9,3-4.7c1.1-1.8,2.2-3.6,3.3-5.4C900.1,55.9,901,54.6,901.6,53.9z
				 M875,72.4c0.8,0.7,2.1,0.4,3.6-0.9c1.6-1.3,3.2-3.1,4.7-5.4c1.6-2.2,3-4.6,4.3-7.1c1.3-2.5,2.1-4.6,2.5-6.3
				c0-0.2-0.1-0.7-0.4-1.3c-0.2-0.6-0.6-1.1-1.1-1.5c-0.5-0.4-1.1-0.7-1.9-0.8c-0.8-0.1-1.8,0.2-3,0.9c-1.7,1-3.2,2.2-4.5,3.7
				c-1.3,1.5-2.5,3.6-3.5,6.3c-0.4,1.1-0.7,2.2-1.1,3.5c-0.4,1.2-0.6,2.4-0.7,3.6c-0.1,1.2-0.1,2.3,0,3.2
				C874,71.3,874.4,72,875,72.4z"/>
			<path fill="#FFFFFF" d="M928.1,54.8c0.7-0.1,1.2,0,1.5,0.5c0.2,0.4,0.1,1.1-0.5,2.1c-1,1.3-1.9,2.9-2.9,4.5
				c-1,1.7-1.9,3.5-2.9,5.3c-1,1.8-2,3.5-3,5.1c-1,1.6-2,2.9-3,3.8c-0.5,0.4-1.2,0.6-2,0.7c-0.9,0.1-1.3-0.3-1.5-1.3l-0.4,0.7
				c-1.9,5-3.8,9.7-5.7,14.1c-1.9,4.4-3.4,7.9-4.5,10.3c-1.3,2.9-2.9,5-4.6,6.2c-1.7,1.2-3.2,1.6-4.5,1.3c-1.6-0.5-2.4-2.1-2.4-4.7
				v-3.5c0-0.2,0-0.5,0.1-0.7c0.1-0.2,0.1-0.5,0.1-0.7c0-0.6,0.1-1.2,0.2-1.6c0.2-1.1,0.5-2.2,0.8-3.5c0.3-1.2,0.8-2.5,1.4-3.8
				c0.2-0.4,0.4-0.7,0.5-1c0.1-0.3,0.2-0.6,0.4-1l1.3-1.8c0.9-1.5,1.8-2.7,2.7-3.6c1-1.1,2-2.1,3.1-3.1c1.1-1,2.2-1.8,3.5-2.5
				l2.5-1.6c0.1-0.1,0.3-0.7,0.5-1.6c-0.9,1-1.6,1.5-2.2,1.7c-0.6,0.2-1.3,0.3-2,0.3c-2.3,0-3.9-0.7-4.7-2.2
				c-0.8-1.5-1.3-3.2-1.3-5.4c0-2.1,0.3-4.5,1-7c0.7-2.5,1.4-4.9,2.1-7.1l3.6-9.5c0.5-0.7,1.1-1.2,1.9-1.5c0.8-0.3,1.6-0.4,2.4-0.4
				c0.8,0.1,1.5,0.3,2.1,0.6c0.6,0.4,1,0.9,1.1,1.6c0.2,0.5,0.1,1-0.5,1.6c-0.6,0.5-1.3,1.4-2,2.7c-0.7,1.3-1.4,2.9-2,4.5l-1.8,5.1
				c-0.2,0.7-0.5,1.8-0.9,3.1c-0.4,1.3-0.6,2.7-0.8,4.1c-0.2,1.4-0.2,2.6,0,3.5c0.2,1,0.6,1.5,1.4,1.5c0.5,0,1.2-0.4,2.3-1.1
				c1-0.7,2-1.9,3-3.6c0.2-0.5,0.8-1.9,1.7-4.1c0.9-2.2,1.9-4.6,2.8-7.2c1-2.5,2.2-5.9,3.8-10.2c0.4-0.6,0.9-1.1,1.7-1.4
				c0.8-0.3,1.6-0.4,2.5-0.3c0.8,0.1,1.6,0.4,2.2,0.7c0.6,0.4,0.8,0.9,0.7,1.5c0.1,0,0.2,0.1,0.2,0.2c0,0.5-0.2,1-0.7,1.5
				c-0.6,0.7-1.2,1.6-1.6,2.7l-4.6,10.6l-3.6,8.9c-0.2,0.9-0.5,1.6-0.6,2.4c-0.2,0.7-0.2,1.1-0.1,1.3c0.4,0,0.8-0.4,1.3-1.3
				c0.5-0.9,0.8-1.3,0.9-1.3c0.1-0.1,0.6-0.9,1.4-2.2c0.8-1.3,1.7-2.9,2.8-4.6c1.1-1.7,2.2-3.4,3.3-5
				C926.5,56.5,927.4,55.4,928.1,54.8z M896.5,101.2c0.4-0.1,0.9-0.9,1.7-2.4c0.8-1.4,1.7-3.3,2.6-5.5c1-2.2,2-4.6,3.1-7.4
				c1.1-2.7,2.1-5.4,3.1-7.9l-0.7,0.5c-1.9,1.7-3.6,3.6-5.1,5.6c-0.4,0.6-0.7,1.2-1.1,1.6c-0.4,0.5-0.7,1-0.9,1.6l-0.7,1.6l-0.7,1.6
				c0,0.1,0,0.2-0.1,0.4c-0.1,0.1-0.1,0.2-0.1,0.4l-0.4,0.7c0,0.4-0.1,0.7-0.2,0.9c0,0.4-0.1,0.6-0.2,0.7c0,0.2,0,0.5-0.1,0.7
				c-0.1,0.2-0.1,0.5-0.1,0.7c0,0.6-0.1,1.1-0.2,1.5v1.3c0,0.2,0,0.5-0.1,0.9c-0.1,0.4-0.1,0.7-0.1,0.9v1.5
				C896.3,101.3,896.4,101.2,896.5,101.2z"/>
			<path fill="#FFFFFF" d="M936.9,45.9c1.1,3.2,2.1,6.1,2.9,8.7c0.8,2.7,1.4,5.3,1.6,7.8c0.1,1.6,0,3.2-0.3,5
				c-0.3,1.8-0.8,3.4-1.6,4.8c-0.8,1.5-1.9,2.6-3.3,3.5c-1.4,0.9-3.1,1.4-5.2,1.4c-1.2,0-2.4-0.2-3.5-0.6c-1.1-0.4-1.9-1.3-2.5-2.6
				c-1.2-2.4-1.2-5.1,0-8c0.1-0.2,0.3-0.4,0.5-0.5c0.2-0.1,0.5-0.2,0.7-0.2c0.2,0.1,0.5,0.2,0.6,0.3c0.2,0.1,0.2,0.7,0.1,1.9
				c-0.1,0.9,0.1,1.9,0.6,3c0.5,1.2,1.5,1.8,2.8,2.1c1,0.1,1.7,0.1,2.1-0.2c0.4-0.2,0.8-0.5,1-0.7c1.3-1.1,2.2-2.5,2.5-4.4
				c0.3-1.8,0.3-3.9,0.1-6.4c-0.2-1.9-0.7-3.9-1.5-6c-0.7-2.1-1.2-3.2-1.4-3.3c0.1,0,0.1,0.1,0,0.2c-0.7,1.2-1.8,2.9-3.1,5
				c-1.3,2.1-2.7,4.2-4.1,6.4c-1.4,2.1-2.7,4.1-3.9,5.8c-1.2,1.8-2,2.9-2.4,3.4c-0.4,0.6-0.8,0.9-1.3,1c-0.5,0.1-0.8-0.8-0.9-2.5
				v-0.2c0-0.1,0.6-1.2,1.8-3.2c1.2-2,2.6-4.3,4.3-6.9c1.6-2.6,3.3-5.1,4.9-7.6c1.6-2.4,2.8-4.2,3.5-5.3c0-0.1-0.1-0.2-0.2-0.4
				c-0.7-2.2-1-3.7-0.9-4.5c0.1-0.9,0.4-1.6,0.7-2.2c0.5-0.7,1.2-1.2,2.1-1.4c0.9-0.2,1.7-0.1,2.5,0.4c0.7,0.4,1.2,1.2,1.5,2.2
				C938,42.8,937.7,44.2,936.9,45.9z M935.4,44.2c0.6-1.7,0.7-2.6,0.2-2.6c-0.5-0.1-0.7,0-0.7,0.3v0.5
				C934.9,42.9,935,43.5,935.4,44.2z"/>
			<path fill="#FFFFFF" d="M970.5,55.5c0.1,0,0.2,0,0.2-0.1c0-0.1,0.1-0.1,0.2-0.1c0.5,0,0.7,0.3,0.7,0.9c0,0.6-0.2,1.2-0.7,1.8
				c-1.5,2.1-3.2,4.2-5.1,6.5c-1.9,2.2-3.9,4.3-5.8,6.1c-1.9,1.8-3.8,3.4-5.5,4.6c-1.8,1.3-3.2,1.9-4.3,1.9c-2.7,0-4.6-1.1-5.7-3.3
				c-1.2-2.2-1.7-4.5-1.7-7.1c0-2.3,0.5-4.8,1.5-7.6c1-2.7,2.3-5.3,4-7.7c1.7-2.4,3.7-4.5,6-6.1c2.3-1.6,4.8-2.5,7.5-2.5
				c3.6,0,5.5,1.8,5.5,5.3c0,1.2-0.3,2.6-0.8,4.3c-0.5,1.6-1.3,3.2-2.4,4.7c-1,1.5-2.3,2.8-3.7,3.9c-1.5,1.1-3,1.6-4.7,1.6
				c-1.1,0-2.2-0.2-3.2-0.6c-1-0.4-1.9-1.1-2.5-2.1c-0.2,0.7-0.6,1.9-1.1,3.5c-0.5,1.6-0.7,3.3-0.7,4.9c0,1.2,0.2,2.2,0.6,3
				c0.4,0.8,1.2,1.2,2.3,1.2c0.9,0,2.2-0.7,3.9-2.1c1.8-1.4,3.6-3,5.6-4.9c2-1.9,3.9-3.8,5.7-5.7C968,57.9,969.4,56.5,970.5,55.5z
				 M953.8,53.3c-0.6,0.6-1.2,1.3-1.6,2.1c-0.5,0.8-1,1.7-1.4,2.6c1,0.8,1.7,1.4,2.2,1.5c0.5,0.2,1,0.3,1.5,0.3c1,0,1.9-0.4,2.7-1.1
				c0.8-0.7,1.6-1.5,2.2-2.4c0.6-0.9,1.1-1.8,1.4-2.7c0.3-0.9,0.5-1.5,0.5-1.9c0-1.2-0.5-1.9-1.6-2.2c-0.8,0-1.8,0.4-2.7,1.1
				C955.7,51.3,954.8,52.2,953.8,53.3z"/>
			<path fill="#FFFFFF" d="M993.8,50.8c1-0.1,1.1,0.7,0.4,2.5c-2.5,2.8-4.4,5-5.6,6.6c-1.2,1.6-2.2,2.7-3.1,3.3
				c-0.7,0.6-1.5,0.6-2.2,0.1c-0.7-0.5-1-1.5-0.9-2.8c0.1-1.3,0.3-2.8,0.5-4.5c0.2-1.6,0.5-3.5,0.8-5.7c0-0.5-0.1-0.7-0.4-0.7
				c-0.1-0.1-0.2-0.1-0.4,0.2c-0.1,0.2-0.2,0.5-0.4,0.7c-0.9,1.2-2,3.2-3.5,5.8c-1.5,2.7-3.1,5.4-4.6,8.1c-1.6,2.7-3,5.2-4.3,7.6
				c-1.3,2.3-2.1,3.7-2.5,4.2c-0.5,0.6-1.3,1-2.5,1.1c-1.2,0.1-1.7-0.7-1.7-2.5v-0.2h0.2c0-0.8,0.1-1.6,0.4-2.2
				c0-0.2,0.1-0.5,0.2-0.9c0.1-0.4,0.2-0.7,0.4-1.1c0.7-3,1.6-6,2.5-9c1-3,1.9-5.7,2.6-8.1c0.8-2.4,1.5-4.5,2.2-6.1
				c0.7-1.6,1.1-2.6,1.4-3c0.4-0.7,0.9-1.2,1.7-1.5c0.8-0.3,1.6-0.4,2.4-0.4c0.8,0.1,1.5,0.3,2.2,0.6c0.7,0.4,1.1,0.9,1.2,1.6
				c0,0.2-0.1,0.5-0.2,0.8c-0.1,0.3-0.3,0.6-0.5,0.8c-0.6,0.5-1.3,1.4-2,2.7c-0.7,1.3-1.4,2.9-2,4.5c-0.1,0.4-0.2,0.7-0.4,1.1
				c-0.1,0.4-0.2,0.8-0.4,1.3c1.4-2.4,3-4.8,4.6-7.2c1.6-2.4,2.7-3.7,3.2-4.1c0.6-0.6,1.3-1.1,2.2-1.4c0.8-0.3,1.6-0.4,2.3-0.2
				c0.7,0.2,1.2,0.6,1.6,1.3c0.4,0.7,0.5,1.5,0.3,2.6c-0.2,1-0.5,2.1-0.8,3.4c-0.3,1.3-0.6,2.5-0.9,3.6c-0.3,1.1-0.6,2.2-0.9,3.2
				c-0.3,1-0.5,1.5-0.5,1.6c-0.1,0.5-0.1,0.7,0,0.5c0.1-0.1,0.3-0.2,0.5-0.4c0.4-0.5,1.3-1.6,2.7-3.4
				C991.1,53.7,992.5,52.1,993.8,50.8z"/>
			<path fill="#FFFFFF" d="M1005.1,56.2c-1.1,1.5-2.3,3.3-3.7,5.5c-1.4,2.2-2.8,4.3-4.1,6.4c-1.3,2.1-2.5,3.9-3.6,5.5
				c-1.1,1.6-2,2.7-2.7,3.2c-1,0.6-2.1,0.8-3.4,0.5c-1.3-0.3-2-1.1-2.3-2.5c-0.5-3.6,0.1-7.9,1.8-12.6c1.7-4.8,3.8-10.3,6.2-16.5
				c0.5-1.2,1.2-2,2.2-2.3c1-0.3,1.9-0.3,2.8,0c0.9,0.3,1.6,0.9,2.1,1.6c0.5,0.8,0.5,1.6,0,2.5c-1.3,2.3-2.6,4.8-3.8,7.4
				c-1.2,2.6-2.2,5-3.1,7.3c-0.9,2.2-1.5,4.1-1.8,5.5c-0.4,1.4-0.2,2,0.4,1.9c0.6-0.5,1.4-1.4,2.5-2.7c1-1.3,2.1-2.8,3.2-4.5
				c1.1-1.6,2.2-3.3,3.4-5c1.1-1.7,2.2-3.2,3-4.4c1-0.1,1.6,0.1,2,0.6C1006.4,54.2,1006.1,55,1005.1,56.2z"/>
		</g>
		<g>
			<path fill="#FFFFFF" d="M1046.4,54.1c0.6-0.1,1,0,1.3,0.5c0.2,0.4,0.1,1.1-0.5,2.1c-2.1,3.6-3.8,6.6-5.3,9
				c-1.5,2.4-3.2,5-5.1,7.9c-1.3,1.9-2.5,3.1-3.4,3.4c-0.9,0.3-1.7,0.4-2.4,0.3c-0.9-0.2-1.5-0.6-2-1.2c-0.5-0.5-0.8-1.6-0.9-3.2
				c0-1.6,0.2-3.3,0.5-5.3c0.3-1.9,0.7-3.9,1.3-5.9c0.5-2,1.2-3.9,1.9-5.6c0.7-1.8,1.4-3.2,2-4.3c-1.2,1.7-2.5,3.6-3.8,5.6
				c-1.3,2.1-2.6,4.1-3.8,6c-1.2,1.9-2.3,3.7-3.3,5.3c-1,1.6-1.7,2.8-2.2,3.6c-1.3,1.8-2.4,3.1-3.2,3.8c-0.8,0.7-1.7,1.1-2.6,1.1
				c-0.8-0.2-1.5-0.6-2-1.1c-0.5-0.5-0.5-1.8-0.2-3.8c0.2-1.7,0.7-4.2,1.5-7.4c0.7-3.2,1.8-6.4,3.1-9.6c0.2-0.8,0.1-0.9-0.4-0.2
				c-1.5,1.9-3,4.1-4.6,6.6c-1.6,2.4-3.2,4.7-4.5,6.8c-1.4,2.1-2.6,3.9-3.6,5.5c-1,1.5-1.6,2.3-1.7,2.5c-1,0.9-2.2,1.1-3.6,0.6
				c-1.4-0.4-2-1.2-1.9-2.3c0.7-3.3,1.6-6.6,2.6-10c1-3.4,2.1-6.5,3.1-9.5c1-2.9,2-5.3,2.8-7.3c0.9-1.9,1.4-3.1,1.6-3.5
				c0.5-0.7,1.1-1.2,2-1.5c0.8-0.3,1.7-0.5,2.5-0.5c0.8,0,1.6,0.2,2.3,0.5c0.7,0.4,1.1,0.9,1.2,1.6c0.1,0.6-0.1,1.2-0.5,1.6
				c-1,0.6-1.8,1.5-2.5,2.5c-0.7,1.1-1.2,2.3-1.7,3.6c-0.5,1.3-0.9,2.5-1.3,3.7c-0.4,1.2-0.7,2.2-0.9,2.9c1.3-1.9,2.8-4.2,4.4-6.6
				c1.6-2.5,3.2-4.8,4.9-7c0.7-1,1.6-1.7,2.6-2.1c1-0.4,2-0.5,2.9-0.4c0.9,0.2,1.6,0.7,2.1,1.5c0.5,0.8,0.5,2.1,0.2,3.6
				c-0.1,0.7-0.4,1.8-0.9,3.2c-0.5,1.4-1,2.9-1.5,4.5c-0.5,1.6-1.1,3.3-1.6,4.9c-0.5,1.6-0.9,2.9-1.2,3.9V65c0.5-0.5,1-1.2,1.5-2
				c0.5-0.8,1.1-1.8,1.7-2.7c0.7-1.2,1.8-2.9,3.3-5.2c1.5-2.2,3.2-4.6,5.1-7c2.1-2.8,3.8-4.4,5.1-4.9c1.3-0.5,2.6-0.4,3.8,0.2
				c1,0.6,1.5,1.4,1.7,2.4c0.2,1-0.3,2.5-1.4,4.7c-1.3,2.5-2.7,5.2-4,8c-1.3,2.8-2.3,6.1-2.9,9.8c0,0.4,0,0.9,0,1.5
				c0,0.6,0.2,0.9,0.5,0.9c0.4,0,0.8-0.3,1.3-0.8c0.5-0.5,1-1.2,1.5-1.9c0.5-0.7,0.9-1.4,1.3-2.1c0.4-0.7,0.7-1.2,0.9-1.5
				c1.2-1.8,2.6-3.9,4.1-6.1C1044.9,55.9,1045.9,54.5,1046.4,54.1z"/>
			<path fill="#FFFFFF" d="M1006,30.1c-0.7-0.7-1.4-1-2.3-1.2c-0.4-0.1-1.2,0.2-1.5,1c0,0.1-0.1,0.2-0.1,0.3
				c-0.1-1.1-0.8-1.5-1.1-1.6c-1-0.2-1.7-0.2-2.6,0.2c-0.9,0.4-1.4,1-1.6,1.8c0,0.1,0,0.3,0,0.4c-0.1,0.7-0.1,1.7,0.6,2.8
				c1,1.8,1.2,2.8,1.1,3.5c-0.4,0.3-0.8,0.7-1.2,0.9c0.6,0.4,1.3,0.5,2,0.3c0.7-0.1,1.4-0.4,2.1-0.7c0.7-0.4,1.3-0.8,1.9-1.3
				c0.6-0.5,1.1-0.9,1.5-1.3c1.1-1,1.7-2,1.9-2.9C1006.7,31.5,1006.7,30.7,1006,30.1z"/>
		</g>
	</g>
</g>
<g id="sol_x5F_serit">
	<path fill="#ED1C24" d="M52,971.3H38.7v-250H39c7.2,0,13,5.8,13,13V971.3z"/>
</g>
<g id="baslik">
	<text transform="matrix(1 0 0 1 72.3062 795.374)"><tspan x="0" y="0" fill="#FFFFFF" font-family="'Poppins'" font-size="72.4759px">Haber Başlığı Bu Kısma</tspan><tspan x="0" y="87" fill="#FFFFFF" font-family="'Poppins'" font-size="72.4759px">Gelecek</tspan></text>
</g>
<g id="spot_x5F_baslik">
	<text transform="matrix(1 0 0 1 74.4922 940.4033)" fill="#FFFFFF" font-family="'Open Sans'" font-size="39.0543px">Spot Başlık İçin Gerekli Alan</text>
</g>
<g id="tarih">
	<linearGradient id="SVGID_8_" gradientUnits="userSpaceOnUse" x1="890" y1="1020" x2="1088.5" y2="1020">
		<stop  offset="0" style="stop-color:#000000;stop-opacity:0"/>
		<stop  offset="0.4613" style="stop-color:#000000;stop-opacity:0.7"/>
		<stop  offset="1" style="stop-color:#000000"/>
	</linearGradient>
	<rect x="890" y="1006" fill="url(#SVGID_8_)" stroke="#FFFFFF" stroke-miterlimit="10" width="198.5" height="28"/>
	<text transform="matrix(1 0 0 1 928 1027.5273)" fill="#FFFFFF" font-family="'Open Sans'" font-size="22.477px">23.05.2026</text>
	<g>
		<path fill="#FFFFFF" d="M931.8,1002.8v-3.4l-2.6-4.7h1.2l1.1,2.2c0.3,0.6,0.6,1.1,0.8,1.7h0c0.2-0.5,0.5-1.1,0.8-1.7l1.2-2.2h1.2
			l-2.7,4.6v3.4H931.8z"/>
		<path fill="#FFFFFF" d="M936.8,1000.3l-0.8,2.5h-1.1l2.7-8.1h1.3l2.8,8.1h-1.1l-0.9-2.5H936.8z M939.5,999.5l-0.8-2.3
			c-0.2-0.5-0.3-1-0.4-1.5h0c-0.1,0.5-0.3,1-0.4,1.5l-0.8,2.3H939.5z"/>
		<path fill="#FFFFFF" d="M943.7,1002.8v-3.4l-2.6-4.7h1.2l1.1,2.2c0.3,0.6,0.6,1.1,0.8,1.7h0c0.2-0.5,0.5-1.1,0.8-1.7l1.2-2.2h1.2
			l-2.7,4.6v3.4H943.7z"/>
		<path fill="#FFFFFF" d="M949.4,994.7v8.1h-1v-8.1H949.4z"/>
		<path fill="#FFFFFF" d="M951.2,1002.8v-8.1h1.1l2.6,4.1c0.6,0.9,1.1,1.8,1.5,2.6l0,0c-0.1-1.1-0.1-2.1-0.1-3.3v-3.4h1v8.1h-1.1
			l-2.6-4.1c-0.6-0.9-1.1-1.8-1.5-2.7l0,0c0.1,1,0.1,2,0.1,3.3v3.5H951.2z"/>
		<path fill="#FFFFFF" d="M959.1,994.7h1v7.2h3.5v0.9h-4.5V994.7z"/>
		<path fill="#FFFFFF" d="M966.1,1000.3l-0.8,2.5h-1.1l2.7-8.1h1.3l2.8,8.1h-1.1l-0.9-2.5H966.1z M968.7,999.5l-0.8-2.3
			c-0.2-0.5-0.3-1-0.4-1.5h0c-0.1,0.5-0.3,1-0.4,1.5l-0.8,2.3H968.7z"/>
		<path fill="#FFFFFF" d="M972.1,1002.8v-8.1h1.1l2.6,4.1c0.6,0.9,1.1,1.8,1.5,2.6l0,0c-0.1-1.1-0.1-2.1-0.1-3.3v-3.4h1v8.1h-1.1
			l-2.6-4.1c-0.6-0.9-1.1-1.8-1.5-2.7l0,0c0.1,1,0.1,2,0.1,3.3v3.5H972.1z"/>
		<path fill="#FFFFFF" d="M986.8,999.3c-0.1-1.1-0.1-2.5-0.1-3.5h0c-0.3,0.9-0.6,2-1,3.1l-1.4,3.9h-0.8l-1.3-3.8
			c-0.4-1.1-0.7-2.2-0.9-3.1h0c0,1-0.1,2.4-0.2,3.6l-0.2,3.5h-1l0.6-8.1h1.3l1.4,3.9c0.3,1,0.6,1.9,0.8,2.7h0
			c0.2-0.8,0.5-1.7,0.9-2.7l1.4-3.9h1.3l0.5,8.1h-1L986.8,999.3z"/>
		<path fill="#FFFFFF" d="M990.8,1000.3l-0.8,2.5h-1.1l2.7-8.1h1.3l2.8,8.1h-1.1l-0.9-2.5H990.8z M993.5,999.5l-0.8-2.3
			c-0.2-0.5-0.3-1-0.4-1.5h0c-0.1,0.5-0.3,1-0.4,1.5l-0.8,2.3H993.5z"/>
		<path fill="#FFFFFF" d="M1000.5,995.6H998v-0.9h6v0.9h-2.5v7.2h-1.1V995.6z"/>
		<path fill="#FFFFFF" d="M1005.3,1000.3l-0.8,2.5h-1.1l2.7-8.1h1.3l2.8,8.1h-1.1l-0.9-2.5H1005.3z M1008,999.5l-0.8-2.3
			c-0.2-0.5-0.3-1-0.4-1.5h0c-0.1,0.5-0.3,1-0.4,1.5l-0.8,2.3H1008z"/>
		<path fill="#FFFFFF" d="M1011.3,994.9c0.5-0.1,1.3-0.2,2-0.2c1.1,0,1.8,0.2,2.3,0.7c0.4,0.4,0.6,0.9,0.6,1.5
			c0,1.1-0.7,1.8-1.5,2.1v0c0.6,0.2,1,0.8,1.2,1.6c0.3,1.1,0.5,1.9,0.6,2.2h-1.1c-0.1-0.2-0.3-0.9-0.5-1.9c-0.2-1.1-0.7-1.5-1.6-1.6
			h-1v3.5h-1V994.9z M1012.4,998.5h1.1c1.1,0,1.8-0.6,1.8-1.5c0-1-0.8-1.5-1.9-1.5c-0.5,0-0.9,0-1,0.1V998.5z"/>
		<path fill="#FFFFFF" d="M1017.7,993.6c0-0.3,0.3-0.6,0.6-0.6c0.3,0,0.6,0.3,0.6,0.6s-0.3,0.6-0.6,0.6
			C1018,994.2,1017.7,993.9,1017.7,993.6z M1018.8,994.7v8.1h-1v-8.1H1018.8z"/>
		<path fill="#FFFFFF" d="M1021.7,994.7v3.4h3.9v-3.4h1.1v8.1h-1.1V999h-3.9v3.8h-1v-8.1H1021.7z"/>
		<path fill="#FFFFFF" d="M1028.4,993.6c0-0.3,0.3-0.6,0.6-0.6c0.3,0,0.6,0.3,0.6,0.6s-0.3,0.6-0.6,0.6
			C1028.7,994.2,1028.4,993.9,1028.4,993.6z M1029.5,994.7v8.1h-1v-8.1H1029.5z"/>
	</g>
</g>
<g id="kategori_x5F_badge">
	<path fill="#ED1C24" d="M226,1045.7H56.3c-8.4,0-15.3-6.8-15.3-15.3V1011h173.1c6.5,0,11.9,5.3,11.9,11.9V1045.7z"/>
</g>
<g id="logo_x5F_icon">
	<g>
		<linearGradient id="SVGID_9_" gradientUnits="userSpaceOnUse" x1="34.4333" y1="86.7889" x2="141.6101" y2="86.7889">
			<stop  offset="1.123600e-02" style="stop-color:#ED1C24"/>
			<stop  offset="0.5" style="stop-color:#AB0F14"/>
			<stop  offset="0.9944" style="stop-color:#670000"/>
		</linearGradient>
		<path fill="url(#SVGID_9_)" d="M141.6,137.4H45.4c-6.1,0-11-4.9-11-11V48c0-6.6,5.3-11.9,11.9-11.9h95.3V137.4z"/>
		<path fill="#ED2224" d="M139.6,134.4H43.4c-6.1,0-11-4.9-11-11V45c0-6.6,5.3-11.9,11.9-11.9h95.3V134.4z"/>
		<g>
			<path fill="#FFFFFF" d="M126.6,84.4c1-0.2,1.7,0.1,2,0.7c0.4,0.7,0.1,1.8-0.9,3.3c-3.3,5.8-6.1,10.7-8.5,14.5
				c-2.3,3.8-5.1,8-8.2,12.7c-2.1,3.1-3.9,4.9-5.4,5.4c-1.4,0.5-2.8,0.6-3.9,0.4c-1.4-0.4-2.4-1-3.2-1.9c-0.8-0.9-1.3-2.6-1.5-5.1
				c0-2.5,0.2-5.4,0.7-8.5c0.5-3.1,1.2-6.3,2-9.5c0.9-3.2,1.9-6.2,3.1-9.1c1.2-2.8,2.2-5.1,3.2-6.9c-1.9,2.7-4,5.7-6.1,9.1
				c-2.1,3.3-4.2,6.5-6.1,9.6c-1.9,3.1-3.7,5.9-5.3,8.5c-1.6,2.5-2.7,4.5-3.5,5.8c-2.1,2.9-3.8,5-5.1,6.1c-1.3,1.2-2.7,1.8-4.2,1.8
				c-1.4-0.4-2.4-1-3.2-1.8c-0.8-0.8-0.9-2.8-0.3-6.1c0.4-2.7,1.2-6.7,2.3-11.8c1.2-5.2,2.8-10.3,5-15.3c0.4-1.4,0.2-1.4-0.6-0.3
				c-2.3,3.1-4.8,6.6-7.4,10.5c-2.6,3.9-5.1,7.5-7.3,10.9c-2.2,3.4-4.2,6.3-5.8,8.8c-1.6,2.4-2.6,3.7-2.8,3.9
				c-1.6,1.4-3.5,1.7-5.7,1c-2.2-0.7-3.3-1.9-3.1-3.6c1.2-5.3,2.6-10.6,4.2-16.1c1.6-5.4,3.3-10.5,5-15.2c1.7-4.7,3.2-8.6,4.5-11.7
				c1.4-3.1,2.2-5,2.6-5.5c0.8-1.2,1.8-2,3.2-2.5c1.4-0.5,2.7-0.7,4.1-0.7c1.4,0,2.6,0.3,3.6,0.9c1.1,0.6,1.7,1.5,1.9,2.6
				c0.2,1-0.1,1.9-0.9,2.6c-1.6,1-2.9,2.3-3.9,4.1c-1.1,1.8-2,3.6-2.8,5.7c-0.8,2-1.5,4-2,6c-0.6,1.9-1.1,3.5-1.5,4.7
				c2.1-3.1,4.5-6.7,7-10.7c2.5-4,5.2-7.7,7.9-11.2c1.2-1.6,2.6-2.7,4.2-3.3c1.7-0.7,3.2-0.9,4.7-0.6c1.5,0.3,2.6,1.1,3.4,2.5
				c0.8,1.4,0.9,3.3,0.3,5.8c-0.2,1.2-0.7,2.9-1.5,5.1c-0.8,2.2-1.6,4.7-2.5,7.3c-0.9,2.6-1.7,5.3-2.6,7.9c-0.9,2.6-1.5,4.7-1.9,6.3
				v0.3c0.8-0.8,1.6-1.9,2.5-3.2c0.9-1.4,1.8-2.8,2.8-4.4c1.2-1.9,2.9-4.7,5.2-8.3c2.3-3.6,5.1-7.4,8.2-11.2c3.3-4.5,6-7.1,8.2-7.9
				c2.1-0.8,4.2-0.7,6.1,0.3c1.6,1,2.5,2.2,2.8,3.8c0.3,1.6-0.4,4.1-2.2,7.6c-2.2,4.1-4.3,8.4-6.4,12.8c-2.1,4.5-3.7,9.7-4.7,15.8
				c0,0.6,0,1.4,0,2.3c0,1,0.3,1.5,0.9,1.5c0.6,0,1.3-0.4,2-1.3c0.8-0.9,1.6-1.9,2.3-3.1c0.8-1.2,1.5-2.3,2-3.4
				c0.6-1.1,1.1-1.9,1.5-2.5c1.9-2.9,4.1-6.2,6.6-9.8C124.2,87.4,125.8,85.2,126.6,84.4z"/>
			<path fill="#FFFFFF" d="M61.8,45.9c-1.1-1.1-2.2-1.6-3.7-1.9c-0.6-0.1-1.9,0.4-2.4,1.6c-0.1,0.2-0.1,0.4-0.2,0.6
				c-0.1-1.7-1.3-2.4-1.8-2.5c-1.5-0.3-2.7-0.3-4.1,0.3c-1.4,0.6-2.3,1.6-2.5,2.9c0,0.2,0,0.4,0,0.7c-0.2,1.1-0.1,2.7,0.9,4.5
				c1.7,2.9,1.9,4.6,1.8,5.6c-0.6,0.6-1.2,1-2,1.5c1,0.6,2,0.8,3.2,0.6c1.2-0.2,2.3-0.6,3.4-1.2c1.1-0.6,2.1-1.3,3.1-2.2
				c0.9-0.8,1.7-1.5,2.4-2.1c1.8-1.7,2.8-3.2,3-4.7C62.9,48.3,62.9,47,61.8,45.9z"/>
		</g>
	</g>
</g>
</svg>
