<?xml version="1.0" encoding="utf-8"?>
<!-- Generator: Adobe Illustrator 23.0.3, SVG Export Plug-In . SVG Version: 6.00 Build 0)  -->
<svg version="1.1" xmlns="http://www.w3.org/2000/svg" xmlns:xlink="http://www.w3.org/1999/xlink" x="0px" y="0px"
	 viewBox="0 0 1600 900" enable-background="new 0 0 1600 900" xml:space="preserve">
<g id="Layer_1">
</g>
<g id="arka_x5F_plan"></g>
	</g>
	<g>
		<defs>
			<rect id="SVGID_5_" x="-1409" y="135" width="1200" height="630"/>
		</defs>
		<clipPath id="SVGID_4_">
			<use xlink:href="#SVGID_5_"  overflow="visible"/>
		</clipPath>
		<g clip-path="url(#SVGID_4_)">
			
				<image overflow="visible" width="1600" height="1066" xlink:href=""  transform="matrix(1.0159 0 0 1.0159 -1426 1)">
			</image>
		</g>
	</g>
</g>
<g id="graiden_x5F_overlay">
	<linearGradient id="SVGID_6_" gradientUnits="userSpaceOnUse" x1="800.0145" y1="506.1502" x2="800.0145" y2="887.6815">
		<stop  offset="0" style="stop-color:#000000;stop-opacity:0"/>
		<stop  offset="0.4613" style="stop-color:#000000;stop-opacity:0.7"/>
		<stop  offset="1" style="stop-color:#000000"/>
	</linearGradient>
	<rect x="1" y="481.8" fill="url(#SVGID_6_)" width="1598" height="424.5"/>
</g>
<g id="ust_x5F_bant">
	<linearGradient id="SVGID_8_" gradientUnits="userSpaceOnUse" x1="1" y1="41.5786" x2="1600.3595" y2="41.5786">
		<stop  offset="1.123600e-02" style="stop-color:#ED1C24"/>
		<stop  offset="0.5" style="stop-color:#AB0F14"/>
		<stop  offset="0.9944" style="stop-color:#670000"/>
	</linearGradient>
	<rect x="1" y="-1" fill="url(#SVGID_8_)" width="1599.4" height="85.2"/>
</g>
<g id="logo_x5F_text">
	<g>
		<g>
			<g>
				<path fill="#FFFFFF" d="M1357.4,34.6v-3.8c0-0.2,0.1-0.5,0.2-0.7c0.1-0.2,0.3-0.4,0.6-0.6c0.2-0.1,0.5-0.2,0.7-0.2h1v-3.1h1.2
					v8.5c0,0.3-0.1,0.5-0.2,0.7c-0.1,0.2-0.3,0.4-0.6,0.6c-0.2,0.1-0.5,0.2-0.7,0.2h-0.7c-0.3,0-0.5-0.1-0.8-0.2
					c-0.2-0.1-0.4-0.3-0.6-0.6C1357.4,35.1,1357.4,34.9,1357.4,34.6z M1359.9,35.3v-5.1h-1.3v5.1H1359.9z"/>
				<path fill="#FFFFFF" d="M1370.9,36.2h-2.8c-0.4,0-0.7-0.1-1-0.4c-0.3-0.3-0.4-0.6-0.4-1v-5.4h1.3v6h1.2v-6h1.3v6h0.5V36.2z
					 M1367.8,28.4c-0.1,0-0.1,0-0.2,0c-0.3,0-0.5-0.2-0.6-0.4c0-0.1,0-0.1,0-0.2c0-0.1,0-0.2,0-0.2c0-0.1,0.1-0.1,0.1-0.2
					c0.1-0.1,0.3-0.2,0.5-0.2c0.2,0,0.3,0.1,0.4,0.2c0.1,0.1,0.2,0.3,0.2,0.4C1368.3,28.2,1368.1,28.4,1367.8,28.4z M1369.6,28.4
					c-0.1,0-0.1,0-0.2,0c-0.2,0-0.3-0.1-0.4-0.2c-0.1-0.1-0.1-0.2-0.2-0.5c0-0.1,0-0.2,0-0.2c0-0.1,0.1-0.1,0.1-0.2
					c0.1-0.1,0.3-0.2,0.5-0.2c0.2,0,0.3,0.1,0.4,0.2c0.1,0.1,0.2,0.3,0.2,0.4C1370.1,28.1,1369.9,28.3,1369.6,28.4z"/>
				<path fill="#FFFFFF" d="M1375.8,29.3h2.7c0.3,0,0.5,0.1,0.7,0.2c0.2,0.1,0.4,0.3,0.6,0.6c0.1,0.2,0.2,0.5,0.2,0.7v5.4h-1.3v-6
					h-1.2v6h-1.3v-6h-0.5V29.3z"/>
				<path fill="#FFFFFF" d="M1386.1,34.9c0.2,0,0.4,0.1,0.5,0.2c0.1,0.1,0.2,0.3,0.2,0.5c0,0.2-0.1,0.5-0.2,0.7
					c-0.1,0.2-0.3,0.4-0.5,0.4h-0.2v-0.5c-0.3-0.1-0.4-0.3-0.4-0.6c0-0.2,0.1-0.3,0.2-0.4C1385.7,35,1385.9,34.9,1386.1,34.9z"/>
				<path fill="#FFFFFF" d="M1395.8,30.8v3.8c0,0.4-0.2,0.8-0.5,1.1c-0.3,0.3-0.7,0.5-1.1,0.5h-0.7c-0.3,0-0.5-0.1-0.7-0.2
					c-0.2-0.1-0.4-0.3-0.6-0.6c-0.1-0.2-0.2-0.5-0.2-0.7v-8.5h1.3v3.1h0.9c0.2,0,0.5,0.1,0.7,0.2c0.2,0.1,0.4,0.3,0.6,0.5
					C1395.7,30.2,1395.8,30.5,1395.8,30.8z M1393.3,30.1v5.1h1.3v-5.1H1393.3z"/>
				<path fill="#FFFFFF" d="M1405.5,36.2h-2.8c-0.4,0-0.7-0.1-1-0.4c-0.3-0.3-0.4-0.6-0.4-1v-5.4h1.3v6h1.2v-6h1.3v6h0.5V36.2z"/>
				<path fill="#FFFFFF" d="M1414.5,29.3v10.1h-2.2c-0.3,0-0.6-0.1-0.8-0.2c-0.2-0.1-0.4-0.3-0.6-0.6c-0.1-0.2-0.2-0.5-0.2-0.8v-0.6
					h1.3v1.3h1.2v-2.3h-1c-0.3,0-0.5-0.1-0.7-0.2c-0.2-0.1-0.4-0.3-0.6-0.6c-0.1-0.2-0.2-0.5-0.2-0.7v-3.7c0-0.3,0.1-0.6,0.2-0.8
					c0.1-0.3,0.3-0.5,0.6-0.6c0.2-0.2,0.5-0.2,0.8-0.2H1414.5z M1413.2,35.3v-5.1h-1.2v5.1H1413.2z"/>
				<path fill="#FFFFFF" d="M1424.2,36.2h-2.8c-0.4,0-0.7-0.1-1-0.4c-0.3-0.3-0.4-0.6-0.4-1v-5.4h1.3v6h1.2v-6h1.3v6h0.5V36.2z
					 M1421.1,28.4c-0.1,0-0.1,0-0.2,0c-0.3,0-0.5-0.2-0.6-0.4c0-0.1,0-0.1,0-0.2c0-0.1,0-0.2,0-0.2c0-0.1,0.1-0.1,0.1-0.2
					c0.1-0.1,0.3-0.2,0.5-0.2c0.2,0,0.3,0.1,0.4,0.2c0.1,0.1,0.2,0.3,0.2,0.4C1421.6,28.2,1421.5,28.4,1421.1,28.4z M1423,28.4
					c-0.1,0-0.1,0-0.2,0c-0.2,0-0.3-0.1-0.4-0.2c-0.1-0.1-0.1-0.2-0.2-0.5c0-0.1,0-0.2,0-0.2c0-0.1,0.1-0.1,0.1-0.2
					c0.1-0.1,0.3-0.2,0.5-0.2c0.2,0,0.3,0.1,0.4,0.2c0.1,0.1,0.2,0.3,0.2,0.4C1423.4,28.1,1423.3,28.3,1423,28.4z"/>
				<path fill="#FFFFFF" d="M1429.2,29.3h2.7c0.3,0,0.5,0.1,0.7,0.2c0.2,0.1,0.4,0.3,0.6,0.6c0.1,0.2,0.2,0.5,0.2,0.7v5.4h-1.3v-6
					h-1.2v6h-1.3v-6h-0.5V29.3z"/>
				<path fill="#FFFFFF" d="M1439.4,34.9c0.2,0,0.4,0.1,0.5,0.2c0.1,0.1,0.2,0.3,0.2,0.5c0,0.2-0.1,0.5-0.2,0.7
					c-0.1,0.2-0.3,0.4-0.5,0.4h-0.2v-0.5c-0.3-0.1-0.4-0.3-0.4-0.6c0-0.2,0.1-0.3,0.2-0.4C1439.1,35,1439.2,34.9,1439.4,34.9z"/>
				<path fill="#FFFFFF" d="M1449.2,29.3l0,8.5c0,0.3-0.1,0.5-0.2,0.7c-0.1,0.2-0.3,0.4-0.6,0.6c-0.2,0.1-0.5,0.2-0.7,0.2h-2.2v-2
					h1.3v1.2h1.3v-2.3h-1c-0.3,0-0.5-0.1-0.8-0.2c-0.2-0.1-0.4-0.3-0.6-0.6c-0.1-0.2-0.2-0.5-0.2-0.8v-5.4h1.3v6h1.2v-6H1449.2z"/>
				<path fill="#FFFFFF" d="M1456.2,31.6l1,0v-1.5h-2c0.1-0.2,0.2-0.4,0.3-0.5c0.2-0.1,0.3-0.2,0.5-0.3c0.2,0,0.4-0.1,0.7-0.1h1.7v6
					h0.6v0.9h-2.8c-0.3,0-0.5-0.1-0.7-0.2c-0.2-0.1-0.4-0.3-0.6-0.6c-0.1-0.2-0.2-0.5-0.2-0.7V33c0-0.2,0.1-0.5,0.2-0.7
					c0.2-0.2,0.4-0.4,0.6-0.5C1455.7,31.6,1456,31.6,1456.2,31.6z M1457.2,35.3v-2.8h-1.2v2.8H1457.2z"/>
				<path fill="#FFFFFF" d="M1467.9,29.3v2.3h-1.2v-1.4h-1.3v6h-1.3v-5.4c0-0.2,0.1-0.5,0.2-0.7c0.1-0.2,0.3-0.4,0.6-0.6
					c0.2-0.1,0.5-0.2,0.7-0.2H1467.9z"/>
				<path fill="#FFFFFF" d="M1474.6,30.4v5.8h-1.3v-6.9c0.4,0,0.7,0.1,0.9,0.3C1474.5,29.8,1474.6,30.1,1474.6,30.4z"/>
				<path fill="#FFFFFF" d="M1479.9,29.3h2.7c0.3,0,0.5,0.1,0.7,0.2c0.2,0.1,0.4,0.3,0.6,0.6c0.1,0.2,0.2,0.5,0.2,0.7v5.4h-1.3v-6
					h-1.2v6h-1.3v-6h-0.5V29.3z"/>
			</g>
		</g>
		<g>
			<path fill="#FFFFFF" d="M1369.6,83.3c0.6-0.3,1.2,0.1,1.8,1.1c0.6,1,0.9,2.2,1,3.6c0.1,1.4-0.1,2.7-0.6,4c-0.5,1.3-1.5,2.1-3,2.5
				c-0.6,0.1-1.3,0.2-1.9,0.2c-0.6,0-1.4-0.2-2.3-0.6c-5.6-2.5-10.3-6.5-14.3-11.9c-4-5.4-7.3-10.9-10-16.5c-0.3-0.4-0.6-1-1-2
				c-0.4-0.9-1-1-1.6-0.3c-1,2.7-2,5.3-2.9,7.9c-0.9,2.6-1.6,4.4-2,5.4c-0.4,1.4-1,2.4-1.9,2.9c-0.9,0.6-1.7,0.8-2.5,0.6
				c-0.8-0.2-1.4-0.8-1.8-1.7c-0.4-0.9-0.4-2.3,0.1-4.1c0.6-2,1.6-4.6,2.7-7.9c1.2-3.2,2.5-6.7,3.9-10.4c1.4-3.7,2.8-7.5,4.4-11.3
				c1.5-3.8,2.9-7.2,4.1-10.2c1.2-3,2.2-5.5,3-7.5c0.8-2,1.2-3,1.2-3.1c0.5-0.6,1.2-1.1,2.1-1.4c0.9-0.3,1.8-0.3,2.8-0.1
				c1.5,0.3,2.6,0.7,3.2,1.3c0.8,0.6,1.1,1.4,0.9,2.2c-0.1,0.8-0.5,1.9-1.1,3.3c-1,2.1-2.2,4.5-3.5,7.1c-1.3,2.6-2.6,5.1-3.9,7.5
				c-1.3,2.4-2.4,4.5-3.4,6.3c-1,1.8-1.6,3-1.7,3.5c0,0.3-0.1,0.5-0.2,0.8c-0.1,0.3-0.3,0.5-0.4,0.9c-0.1,0.3-0.3,0.7-0.4,1
				c2-0.6,4.3-1.8,6.8-3.4c2.5-1.6,4.3-3.9,5.3-6.8c0.4-0.4,0.2-0.6-0.6-0.8c-0.3-0.1-0.5-0.2-0.8-0.2c-0.3,0-0.5-0.1-0.8-0.2
				c-0.1-0.1-0.1-0.3,0-0.5c0.1-0.2,0.2-0.3,0.4-0.3c0.8-0.4,1.7-0.4,2.8-0.2c1.1,0.3,2.2,0.7,3.1,1.4c0.9,0.7,1.7,1.6,2.3,2.6
				c0.6,1,0.7,2,0.5,3c-0.1,0.3-0.2,0.5-0.3,0.8c-0.1,0.3-0.2,0.5-0.5,0.8c-1.5,3.2-3.8,5.6-6.9,7.3c-3.1,1.7-6.3,2.9-9.6,3.5
				c0.4,1.3,1.5,3.2,3.2,5.8c1.8,2.6,3.8,5.1,6.3,7.6c2.4,2.5,4.8,4.6,7.3,6.3c2.5,1.7,4.6,2.4,6.5,2c0.6-0.1,1.3-0.4,1.9-0.8
				C1368.3,83.9,1368.9,83.6,1369.6,83.3z"/>
			<path fill="#FFFFFF" d="M1388.1,56c0.9,0,1.3,0.4,1.3,1.1c0,0.5-0.2,1-0.6,1.5c-0.8,1.3-1.8,3.2-3,5.7c-1.3,2.5-2.7,5-4.2,7.5
				c-1.5,2.5-3,4.6-4.6,6.3c-1.5,1.7-2.8,2.4-4,2c-0.6-0.3-1.2-0.9-1.8-1.9c-0.6-1-0.9-2.8-1-5.3l-0.2-0.2c-1,1.5-2.2,3.1-3.7,4.7
				c-1.5,1.6-3.1,2.5-4.8,2.7c-2.8,0.1-4.8-0.7-6.1-2.4c-1.3-1.7-1.9-3.9-1.9-6.4c0-2.6,0.5-5.5,1.6-8.6c1.1-3.2,2.5-6.1,4.4-8.7
				c1.8-2.7,4-4.9,6.3-6.6c2.4-1.8,4.9-2.7,7.6-2.7c2.5,0,4,1.8,4.4,5.3c0.6-1,1.4-2.1,2.4-3.4c0.9-1.3,2.1-1.9,3.5-1.9
				c0.6,0,1.5,0.3,2.5,0.9c1,0.6,1.3,1.2,0.9,1.8c-0.9,1.4-2.2,4-4,7.9c-1.8,3.9-3.8,9-6.1,15.5c-0.3,0.3-0.4,0.6-0.4,0.9
				c-0.3,0.9-0.1,1.2,0.4,1c0.3,0,0.9-0.7,1.8-2.1c0.9-1.4,2-3,3.1-4.9c1.1-1.9,2.3-3.8,3.4-5.6C1386.6,58.1,1387.5,56.8,1388.1,56z
				 M1360.5,75.4c0.9,0.8,2.1,0.4,3.8-0.9c1.6-1.4,3.3-3.3,4.9-5.6c1.6-2.3,3.1-4.8,4.5-7.4c1.3-2.6,2.2-4.8,2.6-6.5
				c0-0.2-0.1-0.7-0.4-1.3c-0.3-0.6-0.6-1.2-1.1-1.6c-0.5-0.4-1.2-0.7-2-0.8c-0.8-0.1-1.9,0.2-3.1,1c-1.8,1-3.3,2.3-4.6,3.9
				c-1.3,1.6-2.6,3.8-3.7,6.5c-0.4,1.1-0.8,2.3-1.1,3.6c-0.4,1.3-0.6,2.5-0.8,3.8c-0.1,1.3-0.1,2.4,0,3.3
				C1359.4,74.1,1359.8,74.9,1360.5,75.4z"/>
			<path fill="#FFFFFF" d="M1415.8,57c0.8-0.1,1.3,0,1.5,0.5c0.3,0.4,0.1,1.2-0.6,2.2c-1,1.4-2,3-3,4.7c-1,1.8-2,3.6-3,5.5
				c-1,1.9-2.1,3.7-3.1,5.3c-1.1,1.6-2.1,3-3.1,4c-0.5,0.4-1.2,0.6-2.1,0.8c-0.9,0.1-1.4-0.3-1.5-1.3l-0.4,0.8c-2,5.2-4,10.1-6,14.7
				c-2,4.6-3.5,8.2-4.6,10.7c-1.4,3-3,5.2-4.7,6.4c-1.8,1.3-3.3,1.7-4.7,1.3c-1.6-0.5-2.5-2.1-2.5-4.9V104c0-0.3,0-0.5,0.1-0.8
				c0.1-0.3,0.1-0.5,0.1-0.8c0-0.6,0.1-1.2,0.2-1.7c0.3-1.1,0.5-2.3,0.8-3.6c0.3-1.3,0.8-2.6,1.4-4c0.3-0.4,0.4-0.7,0.6-1
				c0.1-0.3,0.3-0.7,0.4-1.1l1.3-1.9c0.9-1.5,1.8-2.8,2.8-3.8c1-1.1,2.1-2.2,3.2-3.2c1.1-1,2.3-1.9,3.6-2.7l2.7-1.7
				c0.1-0.1,0.3-0.7,0.6-1.7c-0.9,1-1.7,1.6-2.3,1.8c-0.6,0.2-1.3,0.3-2.1,0.3c-2.4,0-4-0.8-4.9-2.3c-0.9-1.5-1.3-3.4-1.3-5.6
				c0-2.2,0.4-4.6,1-7.3c0.7-2.7,1.4-5.1,2.2-7.4l3.8-9.9c0.5-0.8,1.2-1.3,2-1.6c0.8-0.3,1.6-0.4,2.5-0.4c0.8,0.1,1.6,0.3,2.2,0.7
				c0.6,0.4,1,0.9,1.1,1.7c0.3,0.5,0.1,1.1-0.6,1.7c-0.6,0.5-1.3,1.5-2.1,2.8c-0.8,1.4-1.5,3-2.1,4.7l-1.9,5.3
				c-0.3,0.8-0.6,1.8-0.9,3.2c-0.4,1.4-0.7,2.8-0.8,4.3c-0.2,1.5-0.2,2.7,0,3.7c0.2,1,0.7,1.5,1.4,1.5c0.5,0,1.3-0.4,2.4-1.1
				c1.1-0.8,2.1-2,3.1-3.8c0.2-0.5,0.8-1.9,1.8-4.3c0.9-2.3,1.9-4.8,2.9-7.5c1-2.7,2.3-6.2,4-10.6c0.4-0.6,1-1.1,1.8-1.4
				c0.8-0.3,1.7-0.4,2.6-0.3c0.9,0.1,1.6,0.4,2.3,0.8c0.6,0.4,0.9,0.9,0.8,1.5c0.1,0,0.2,0.1,0.2,0.2c0,0.5-0.3,1-0.8,1.5
				c-0.6,0.8-1.2,1.7-1.7,2.8l-4.7,11l-3.8,9.3c-0.3,0.9-0.5,1.7-0.7,2.5c-0.2,0.8-0.2,1.2-0.1,1.3c0.4,0,0.8-0.4,1.3-1.3
				c0.5-0.9,0.8-1.3,0.9-1.3c0.1-0.1,0.6-0.9,1.4-2.3c0.8-1.4,1.8-3,2.9-4.7c1.1-1.8,2.3-3.5,3.4-5.2
				C1414.1,58.8,1415.1,57.6,1415.8,57z M1382.8,105.3c0.4-0.1,1-0.9,1.8-2.5c0.8-1.5,1.7-3.4,2.7-5.7c1-2.3,2.1-4.8,3.2-7.7
				c1.1-2.8,2.2-5.6,3.2-8.3l-0.8,0.6c-2,1.8-3.8,3.7-5.3,5.9c-0.4,0.6-0.8,1.2-1.1,1.7c-0.4,0.5-0.7,1.1-0.9,1.7l-0.8,1.7l-0.8,1.7
				c0,0.1,0,0.2-0.1,0.4c-0.1,0.1-0.1,0.3-0.1,0.4l-0.4,0.8c0,0.4-0.1,0.7-0.2,0.9c0,0.4-0.1,0.6-0.2,0.8c0,0.2,0,0.5-0.1,0.8
				c-0.1,0.3-0.1,0.5-0.1,0.8c0,0.6-0.1,1.1-0.2,1.5v1.3c0,0.2,0,0.6-0.1,0.9c-0.1,0.4-0.1,0.7-0.1,1v1.5
				C1382.6,105.4,1382.7,105.3,1382.8,105.3z"/>
			<path fill="#FFFFFF" d="M1424.9,47.7c1.1,3.3,2.2,6.3,3,9.1c0.9,2.8,1.5,5.5,1.7,8.2c0.1,1.6,0,3.4-0.3,5.2
				c-0.3,1.8-0.9,3.5-1.7,5c-0.8,1.5-2,2.7-3.4,3.7c-1.5,0.9-3.3,1.4-5.4,1.4c-1.3,0-2.5-0.2-3.6-0.7c-1.1-0.4-2-1.4-2.7-2.8
				c-1.3-2.5-1.3-5.3,0-8.3c0.1-0.3,0.3-0.4,0.6-0.6c0.3-0.1,0.5-0.2,0.8-0.2c0.3,0.1,0.5,0.2,0.7,0.3c0.2,0.1,0.2,0.7,0.1,2
				c-0.1,0.9,0.1,1.9,0.7,3.1c0.6,1.2,1.6,1.9,2.9,2.2c1,0.1,1.7,0.1,2.2-0.2c0.4-0.3,0.8-0.5,1-0.8c1.4-1.1,2.2-2.7,2.6-4.6
				c0.3-1.9,0.3-4.1,0.1-6.6c-0.3-2-0.8-4.1-1.5-6.3c-0.8-2.2-1.3-3.3-1.5-3.4c0.1,0,0.1,0.1,0,0.2c-0.8,1.3-1.8,3-3.2,5.2
				c-1.4,2.2-2.8,4.4-4.3,6.6c-1.4,2.2-2.8,4.2-4.1,6.1c-1.3,1.8-2.1,3-2.5,3.5c-0.4,0.6-0.8,1-1.3,1c-0.5,0.1-0.8-0.8-1-2.6v-0.2
				c0-0.1,0.6-1.2,1.9-3.3c1.3-2.1,2.7-4.5,4.5-7.2c1.7-2.7,3.4-5.3,5.1-7.9c1.7-2.5,2.9-4.4,3.7-5.5c0-0.1-0.1-0.2-0.2-0.4
				c-0.8-2.3-1.1-3.9-0.9-4.7c0.1-0.9,0.4-1.6,0.8-2.3c0.5-0.8,1.2-1.2,2.2-1.4c0.9-0.2,1.8-0.1,2.6,0.4c0.8,0.4,1.3,1.2,1.5,2.3
				C1426.1,44.5,1425.8,45.9,1424.9,47.7z M1423.4,46c0.6-1.8,0.7-2.7,0.2-2.7c-0.5-0.1-0.8,0-0.8,0.3v0.6
				C1422.8,44.6,1423,45.2,1423.4,46z"/>
			<path fill="#FFFFFF" d="M1460,57.7c0.1,0,0.2,0,0.2-0.1c0-0.1,0.1-0.1,0.2-0.1c0.5,0,0.8,0.3,0.8,0.9c0,0.6-0.3,1.3-0.8,1.9
				c-1.5,2.2-3.3,4.4-5.3,6.7c-2,2.3-4.1,4.5-6.1,6.4c-2,1.9-4,3.5-5.8,4.8c-1.8,1.3-3.3,2-4.5,2c-2.8,0-4.8-1.1-6-3.4
				c-1.2-2.3-1.8-4.7-1.8-7.4c0-2.4,0.5-5,1.5-7.9c1-2.8,2.4-5.5,4.2-8.1c1.8-2.5,3.9-4.6,6.3-6.3c2.4-1.7,5-2.6,7.8-2.6
				c3.8,0,5.7,1.8,5.7,5.5c0,1.3-0.3,2.7-0.9,4.5c-0.6,1.7-1.4,3.3-2.5,4.9c-1.1,1.6-2.4,2.9-3.9,4.1c-1.5,1.1-3.2,1.7-4.9,1.7
				c-1.1,0-2.2-0.2-3.3-0.7c-1.1-0.4-1.9-1.2-2.6-2.2c-0.3,0.8-0.6,2-1.1,3.6c-0.5,1.7-0.8,3.4-0.8,5.1c0,1.3,0.2,2.3,0.7,3.1
				c0.4,0.8,1.2,1.2,2.4,1.2c0.9,0,2.2-0.7,4.1-2.2c1.8-1.5,3.8-3.2,5.9-5.1c2.1-2,4.1-3.9,6-6C1457.3,60.3,1458.9,58.7,1460,57.7z
				 M1442.6,55.5c-0.6,0.6-1.2,1.4-1.7,2.2c-0.5,0.8-1,1.7-1.5,2.7c1,0.9,1.8,1.4,2.3,1.6c0.5,0.2,1,0.3,1.5,0.3c1,0,2-0.4,2.8-1.1
				c0.9-0.8,1.6-1.6,2.3-2.6c0.6-0.9,1.1-1.9,1.4-2.8c0.3-0.9,0.5-1.6,0.5-2c0-1.3-0.6-2-1.7-2.3c-0.9,0-1.8,0.4-2.8,1.1
				C1444.6,53.4,1443.6,54.3,1442.6,55.5z"/>
			<path fill="#FFFFFF" d="M1484.3,52.8c1-0.1,1.1,0.8,0.4,2.7c-2.7,2.9-4.6,5.2-5.9,6.8c-1.3,1.6-2.3,2.8-3.2,3.4
				c-0.8,0.6-1.5,0.7-2.3,0.1c-0.8-0.6-1.1-1.6-1-2.9c0.1-1.4,0.3-2.9,0.5-4.7c0.2-1.7,0.5-3.7,0.8-6c0-0.5-0.1-0.8-0.4-0.8
				c-0.1-0.1-0.3-0.1-0.4,0.2c-0.1,0.3-0.3,0.5-0.4,0.8c-0.9,1.3-2.1,3.3-3.7,6.1c-1.6,2.8-3.2,5.6-4.8,8.4
				c-1.6,2.8-3.1,5.5-4.5,7.9c-1.3,2.4-2.2,3.9-2.6,4.4c-0.5,0.6-1.4,1-2.6,1.1c-1.2,0.1-1.8-0.8-1.8-2.7v-0.2h0.2
				c0-0.9,0.1-1.6,0.4-2.3c0-0.3,0.1-0.6,0.2-0.9c0.1-0.4,0.3-0.8,0.4-1.1c0.8-3.2,1.6-6.3,2.7-9.4c1-3.1,1.9-5.9,2.7-8.4
				c0.8-2.5,1.6-4.7,2.3-6.4c0.7-1.7,1.2-2.7,1.4-3.1c0.4-0.8,1-1.3,1.8-1.6c0.8-0.3,1.6-0.4,2.5-0.4c0.8,0.1,1.6,0.3,2.3,0.7
				c0.7,0.4,1.1,0.9,1.2,1.7c0,0.3-0.1,0.5-0.2,0.8c-0.1,0.3-0.3,0.6-0.6,0.9c-0.6,0.5-1.3,1.5-2.1,2.8c-0.8,1.4-1.5,3-2.1,4.7
				c-0.1,0.4-0.3,0.8-0.4,1.1c-0.1,0.4-0.3,0.8-0.4,1.3c1.5-2.5,3.1-5,4.8-7.5c1.7-2.5,2.8-3.9,3.3-4.3c0.6-0.6,1.4-1.1,2.3-1.4
				c0.9-0.3,1.7-0.4,2.4-0.2c0.7,0.2,1.3,0.6,1.7,1.3c0.4,0.7,0.5,1.6,0.3,2.7c-0.3,1-0.5,2.2-0.9,3.5c-0.3,1.3-0.6,2.6-0.9,3.8
				c-0.3,1.2-0.6,2.3-0.9,3.3c-0.3,1-0.5,1.6-0.5,1.7c-0.1,0.5-0.1,0.7,0,0.6c0.1-0.1,0.3-0.3,0.6-0.4c0.4-0.5,1.3-1.7,2.8-3.5
				C1481.4,55.8,1482.9,54.2,1484.3,52.8z"/>
			<path fill="#FFFFFF" d="M1496,58.5c-1.1,1.5-2.4,3.4-3.9,5.7c-1.5,2.3-2.9,4.5-4.3,6.6c-1.4,2.2-2.7,4.1-3.8,5.8
				c-1.1,1.7-2.1,2.8-2.8,3.3c-1,0.6-2.2,0.8-3.5,0.5c-1.3-0.3-2.1-1.2-2.4-2.6c-0.5-3.8,0.1-8.2,1.9-13.2c1.8-5,3.9-10.7,6.4-17.2
				c0.5-1.3,1.3-2.1,2.3-2.4c1-0.3,2-0.3,2.9,0c0.9,0.3,1.7,0.9,2.2,1.7c0.5,0.8,0.5,1.7,0,2.6c-1.4,2.4-2.7,5-4,7.7
				c-1.3,2.7-2.3,5.2-3.2,7.6c-0.9,2.3-1.5,4.2-1.9,5.7c-0.4,1.5-0.3,2.1,0.4,2c0.6-0.5,1.5-1.5,2.6-2.8c1.1-1.4,2.2-2.9,3.3-4.6
				c1.1-1.7,2.3-3.5,3.5-5.2c1.2-1.8,2.2-3.3,3.1-4.6c1-0.1,1.7,0.1,2.1,0.7C1497.3,56.3,1497,57.2,1496,58.5z"/>
		</g>
		<g>
			<path fill="#FFFFFF" d="M1539,56.2c0.6-0.1,1.1,0,1.3,0.5c0.2,0.4,0.1,1.2-0.6,2.2c-2.2,3.8-4,6.9-5.5,9.4
				c-1.5,2.5-3.3,5.2-5.3,8.2c-1.4,2-2.6,3.2-3.5,3.5c-0.9,0.3-1.8,0.4-2.6,0.3c-0.9-0.3-1.6-0.7-2.1-1.2c-0.5-0.6-0.8-1.7-0.9-3.3
				c0-1.6,0.2-3.5,0.5-5.5c0.3-2,0.8-4.1,1.3-6.2c0.6-2.1,1.2-4,2-5.9c0.8-1.8,1.5-3.3,2.1-4.5c-1.3,1.8-2.6,3.7-4,5.9
				c-1.4,2.2-2.7,4.2-4,6.3c-1.3,2-2.4,3.9-3.4,5.5c-1,1.6-1.8,2.9-2.3,3.8c-1.4,1.9-2.5,3.2-3.3,4c-0.8,0.8-1.7,1.1-2.8,1.1
				c-0.9-0.3-1.6-0.6-2.1-1.1c-0.5-0.5-0.6-1.8-0.2-4c0.3-1.8,0.8-4.3,1.5-7.7c0.8-3.3,1.8-6.7,3.2-10c0.3-0.9,0.1-0.9-0.4-0.2
				c-1.5,2-3.1,4.3-4.8,6.8c-1.7,2.5-3.3,4.9-4.7,7.1c-1.5,2.2-2.7,4.1-3.8,5.7c-1.1,1.6-1.7,2.4-1.8,2.6c-1,0.9-2.2,1.1-3.7,0.7
				c-1.5-0.4-2.1-1.2-2-2.4c0.8-3.4,1.7-6.9,2.8-10.4c1.1-3.5,2.2-6.8,3.2-9.9c1.1-3,2.1-5.6,2.9-7.6c0.9-2,1.5-3.2,1.7-3.6
				c0.5-0.8,1.2-1.3,2.1-1.6c0.9-0.3,1.8-0.5,2.7-0.5c0.9,0,1.7,0.2,2.4,0.6c0.7,0.4,1.1,0.9,1.2,1.7c0.1,0.6-0.1,1.2-0.6,1.7
				c-1,0.6-1.9,1.5-2.6,2.7c-0.7,1.1-1.3,2.4-1.8,3.7c-0.5,1.3-0.9,2.6-1.3,3.9c-0.4,1.3-0.7,2.3-0.9,3c1.4-2,2.9-4.3,4.6-6.9
				c1.6-2.6,3.3-5,5.1-7.3c0.8-1,1.7-1.7,2.8-2.2c1.1-0.4,2.1-0.6,3-0.4c0.9,0.2,1.7,0.7,2.2,1.6c0.5,0.9,0.6,2.2,0.2,3.8
				c-0.1,0.8-0.4,1.9-0.9,3.3c-0.5,1.5-1,3-1.6,4.7c-0.6,1.7-1.1,3.4-1.7,5.1c-0.6,1.7-1,3.1-1.2,4.1v0.2c0.5-0.5,1-1.2,1.6-2.1
				c0.6-0.9,1.2-1.8,1.8-2.8c0.8-1.3,1.9-3.1,3.4-5.4c1.5-2.3,3.3-4.8,5.3-7.3c2.2-2.9,3.9-4.6,5.3-5.1c1.4-0.5,2.7-0.4,4,0.2
				c1,0.6,1.6,1.5,1.8,2.5c0.2,1-0.3,2.7-1.4,4.9c-1.4,2.7-2.8,5.4-4.2,8.3c-1.4,2.9-2.4,6.3-3,10.2c0,0.4,0,0.9,0,1.5
				c0,0.6,0.2,0.9,0.6,0.9c0.4,0,0.8-0.3,1.3-0.9c0.5-0.6,1-1.2,1.5-2c0.5-0.8,0.9-1.5,1.3-2.2c0.4-0.7,0.7-1.2,0.9-1.6
				c1.3-1.9,2.7-4,4.3-6.4C1537.5,58.1,1538.5,56.7,1539,56.2z"/>
			<path fill="#FFFFFF" d="M1496.9,31.2c-0.7-0.7-1.4-1-2.4-1.2c-0.4-0.1-1.3,0.2-1.6,1.1c0,0.1-0.1,0.2-0.1,0.4
				c-0.1-1.1-0.8-1.6-1.2-1.7c-1-0.2-1.7-0.2-2.7,0.2c-0.9,0.4-1.5,1-1.6,1.9c0,0.1,0,0.3,0,0.4c-0.1,0.7-0.1,1.7,0.6,2.9
				c1.1,1.9,1.3,3,1.1,3.6c-0.4,0.4-0.8,0.7-1.3,0.9c0.6,0.4,1.3,0.5,2.1,0.4c0.8-0.1,1.5-0.4,2.2-0.8c0.7-0.4,1.4-0.9,2-1.4
				c0.6-0.5,1.1-1,1.5-1.4c1.1-1.1,1.8-2.1,2-3C1497.7,32.7,1497.7,31.9,1496.9,31.2z"/>
		</g>
	</g>
</g>
<g id="sol_x5F_serit">
	<path fill="#ED1C24" d="M70.7,849.1H59.1V631.7H62c4.8,0,8.7,3.9,8.7,8.7V849.1z"/>
</g>
<g id="baslik"></g>
</g>
<g id="spot_x5F_baslik"></g>
<g id="tarih"></g>
</g>
<g id="kategori_x5F_badge">
	<path fill="#ED1C24" d="M1556.5,173.1h-217.6c-8.4,0-15.3-6.8-15.3-15.3v-28.4h221c6.5,0,11.9,5.3,11.9,11.9V173.1z"/>
</g>
<g id="logo_x5F_icon">
	<g>
		<linearGradient id="SVGID_10_" gradientUnits="userSpaceOnUse" x1="52.1469" y1="93.3491" x2="163.8269" y2="93.3491">
			<stop  offset="1.123600e-02" style="stop-color:#ED1C24"/>
			<stop  offset="0.5" style="stop-color:#AB0F14"/>
			<stop  offset="0.9944" style="stop-color:#670000"/>
		</linearGradient>
		<path fill="url(#SVGID_10_)" d="M163.8,146.1H63.2c-6.1,0-11-4.9-11-11V52.5c0-6.6,5.3-11.9,11.9-11.9h99.8V146.1z"/>
		<path fill="#ED2224" d="M159.8,141.1H59.2c-6.1,0-11-4.9-11-11V47.5c0-6.6,5.3-11.9,11.9-11.9h99.8V141.1z"/>
		<g>
			<path fill="#FFFFFF" d="M146.3,89c1-0.2,1.7,0.1,2.1,0.8c0.4,0.7,0.1,1.9-0.9,3.5c-3.5,6.1-6.4,11.1-8.8,15.1
				c-2.4,4-5.3,8.4-8.5,13.2c-2.2,3.2-4.1,5.1-5.6,5.6c-1.5,0.5-2.9,0.7-4.1,0.5c-1.4-0.4-2.5-1.1-3.4-2c-0.8-0.9-1.3-2.7-1.5-5.3
				c0-2.6,0.3-5.6,0.8-8.8c0.5-3.2,1.2-6.5,2.1-9.9c0.9-3.3,2-6.5,3.2-9.4c1.2-2.9,2.3-5.3,3.3-7.1c-2,2.8-4.2,6-6.4,9.4
				c-2.2,3.5-4.4,6.8-6.4,10c-2,3.2-3.8,6.2-5.5,8.8c-1.6,2.6-2.8,4.7-3.7,6.1c-2.2,3-4,5.2-5.3,6.4c-1.3,1.2-2.8,1.8-4.4,1.8
				c-1.4-0.4-2.5-1-3.3-1.8c-0.8-0.8-0.9-2.9-0.3-6.4c0.4-2.8,1.2-6.9,2.4-12.3c1.2-5.4,2.9-10.7,5.2-16c0.4-1.4,0.2-1.5-0.6-0.3
				c-2.4,3.2-5,6.9-7.8,11c-2.7,4.1-5.3,7.9-7.6,11.4c-2.3,3.6-4.4,6.6-6.1,9.1c-1.7,2.5-2.7,3.9-2.9,4.1c-1.6,1.4-3.6,1.8-5.9,1.1
				c-2.3-0.7-3.4-2-3.2-3.8c1.2-5.5,2.7-11.1,4.4-16.7c1.7-5.7,3.5-10.9,5.2-15.8c1.7-4.9,3.3-8.9,4.7-12.2c1.4-3.2,2.3-5.2,2.7-5.8
				c0.8-1.2,1.9-2.1,3.3-2.6c1.4-0.5,2.8-0.8,4.3-0.8c1.4,0,2.7,0.3,3.8,0.9c1.1,0.6,1.8,1.5,2,2.7c0.2,1-0.1,1.9-0.9,2.7
				c-1.6,1-3,2.4-4.1,4.3c-1.1,1.8-2.1,3.8-2.9,5.9c-0.8,2.1-1.5,4.2-2.1,6.2c-0.6,2-1.1,3.7-1.5,4.9c2.2-3.2,4.7-6.9,7.3-11.1
				c2.6-4.2,5.4-8.1,8.2-11.7c1.2-1.6,2.7-2.8,4.4-3.5c1.7-0.7,3.3-0.9,4.9-0.6c1.5,0.3,2.7,1.2,3.5,2.6c0.8,1.4,0.9,3.5,0.3,6.1
				c-0.2,1.2-0.7,3-1.5,5.3c-0.8,2.3-1.7,4.9-2.6,7.6c-0.9,2.7-1.8,5.5-2.7,8.2c-0.9,2.7-1.6,4.9-2,6.5v0.3c0.8-0.8,1.7-1.9,2.6-3.3
				c0.9-1.4,1.9-2.9,2.9-4.6c1.2-2,3-4.9,5.5-8.7c2.4-3.7,5.3-7.7,8.5-11.7c3.5-4.7,6.3-7.4,8.5-8.2c2.2-0.8,4.4-0.7,6.4,0.3
				c1.6,1,2.6,2.3,2.9,4c0.3,1.6-0.5,4.3-2.3,7.9c-2.2,4.3-4.5,8.7-6.7,13.4c-2.2,4.7-3.9,10.1-4.9,16.4c0,0.6,0,1.4,0,2.4
				c0,1,0.3,1.5,0.9,1.5c0.6,0,1.3-0.5,2.1-1.4c0.8-0.9,1.6-2,2.4-3.2c0.8-1.2,1.5-2.4,2.1-3.5c0.6-1.1,1.1-2,1.5-2.6
				c2-3,4.3-6.4,6.8-10.2C143.8,92.1,145.4,89.8,146.3,89z"/>
			<path fill="#FFFFFF" d="M78.7,48.9c-1.2-1.1-2.3-1.7-3.9-1.9c-0.7-0.1-2,0.4-2.5,1.7c-0.1,0.2-0.2,0.4-0.2,0.6
				c-0.1-1.8-1.3-2.6-1.9-2.7c-1.6-0.3-2.8-0.3-4.3,0.3c-1.5,0.6-2.4,1.6-2.6,3c0,0.2,0,0.5,0,0.7c-0.2,1.1-0.1,2.8,1,4.7
				c1.7,3,2,4.8,1.8,5.8c-0.6,0.6-1.3,1.1-2,1.5c1,0.6,2.1,0.8,3.3,0.6c1.2-0.2,2.4-0.6,3.5-1.2c1.2-0.6,2.2-1.4,3.2-2.2
				c1-0.9,1.8-1.6,2.5-2.2c1.8-1.8,2.9-3.4,3.1-4.9C79.9,51.3,79.9,50,78.7,48.9z"/>
		</g>
	</g>
</g>
</svg>
