<?xml version="1.0" encoding="utf-8"?>
<!-- Generator: Adobe Illustrator 23.0.3, SVG Export Plug-In . SVG Version: 6.00 Build 0)  -->
<svg version="1.1" xmlns="http://www.w3.org/2000/svg" xmlns:xlink="http://www.w3.org/1999/xlink" x="0px" y="0px"
	 viewBox="0 0 1280 720" enable-background="new 0 0 1280 720" xml:space="preserve">
<g id="Layer_1">
</g>
<g id="graiden_x5F_overlay">
	<linearGradient id="SVGID_1_" gradientUnits="userSpaceOnUse" x1="640.4099" y1="406.6707" x2="640.4099" y2="711.9904">
		<stop  offset="0" style="stop-color:#000000;stop-opacity:0"/>
		<stop  offset="0.4613" style="stop-color:#000000;stop-opacity:0.7"/>
		<stop  offset="1" style="stop-color:#000000"/>
	</linearGradient>
	<rect x="1" y="387.2" fill="url(#SVGID_1_)" width="1278.8" height="339.7"/>
</g>
<g id="ust_x5F_bant">
	<linearGradient id="SVGID_2_" gradientUnits="userSpaceOnUse" x1="1" y1="34.8981" x2="1280.8844" y2="34.8981">
		<stop  offset="1.123600e-02" style="stop-color:#ED1C24"/>
		<stop  offset="0.5" style="stop-color:#AB0F14"/>
		<stop  offset="0.9944" style="stop-color:#670000"/>
	</linearGradient>
	<rect x="1" y="0.8" fill="url(#SVGID_2_)" width="1279.9" height="68.1"/>
</g>
<g id="logo_x5F_text">
	<g>
		<g>
			<g>
				<path fill="#FFFFFF" d="M1086.4,29.3v-3.1c0-0.2,0.1-0.4,0.2-0.6c0.1-0.2,0.3-0.3,0.5-0.5c0.2-0.1,0.4-0.2,0.6-0.2h0.8v-2.5h1
					v6.8c0,0.2-0.1,0.4-0.2,0.6c-0.1,0.2-0.3,0.3-0.5,0.5c-0.2,0.1-0.4,0.2-0.6,0.2h-0.6c-0.2,0-0.4-0.1-0.6-0.2
					c-0.2-0.1-0.3-0.3-0.5-0.5C1086.5,29.7,1086.4,29.5,1086.4,29.3z M1088.5,29.9v-4.1h-1v4.1H1088.5z"/>
				<path fill="#FFFFFF" d="M1097.2,30.6h-2.2c-0.3,0-0.6-0.1-0.8-0.4c-0.2-0.2-0.4-0.5-0.4-0.8V25h1v4.8h1V25h1v4.8h0.4V30.6z
					 M1094.8,24.4c-0.1,0-0.1,0-0.1,0c-0.2,0-0.4-0.1-0.5-0.3c0,0,0-0.1,0-0.2c0-0.1,0-0.1,0-0.2c0-0.1,0.1-0.1,0.1-0.2
					c0.1-0.1,0.2-0.1,0.4-0.1c0.1,0,0.2,0.1,0.3,0.2c0.1,0.1,0.1,0.2,0.1,0.4C1095.1,24.2,1095,24.3,1094.8,24.4z M1096.2,24.4
					c-0.1,0-0.1,0-0.1,0c-0.2,0-0.3-0.1-0.3-0.1c-0.1-0.1-0.1-0.2-0.2-0.4c0-0.1,0-0.1,0-0.2c0-0.1,0.1-0.1,0.1-0.2
					c0.1-0.1,0.2-0.1,0.4-0.1c0.1,0,0.3,0.1,0.3,0.2c0.1,0.1,0.1,0.2,0.1,0.4C1096.6,24.1,1096.5,24.3,1096.2,24.4z"/>
				<path fill="#FFFFFF" d="M1101.2,25h2.2c0.2,0,0.4,0.1,0.6,0.2c0.2,0.1,0.3,0.3,0.5,0.4c0.1,0.2,0.2,0.4,0.2,0.6v4.3h-1v-4.8h-1
					v4.8h-1v-4.8h-0.4V25z"/>
				<path fill="#FFFFFF" d="M1109.4,29.6c0.2,0,0.3,0.1,0.4,0.2c0.1,0.1,0.1,0.2,0.1,0.4c0,0.2-0.1,0.4-0.2,0.6
					c-0.1,0.2-0.2,0.3-0.4,0.3h-0.1v-0.4c-0.2-0.1-0.3-0.2-0.3-0.5c0-0.1,0-0.2,0.1-0.3C1109.1,29.6,1109.3,29.6,1109.4,29.6z"/>
				<path fill="#FFFFFF" d="M1117.2,26.2v3.1c0,0.3-0.1,0.6-0.4,0.9c-0.2,0.3-0.5,0.4-0.9,0.4h-0.5c-0.2,0-0.4-0.1-0.6-0.2
					c-0.2-0.1-0.3-0.3-0.5-0.5c-0.1-0.2-0.2-0.4-0.2-0.6v-6.8h1V25h0.7c0.2,0,0.4,0.1,0.6,0.2c0.2,0.1,0.3,0.3,0.5,0.4
					C1117.1,25.8,1117.2,26,1117.2,26.2z M1115.2,25.7v4.1h1v-4.1H1115.2z"/>
				<path fill="#FFFFFF" d="M1125,30.6h-2.2c-0.3,0-0.6-0.1-0.8-0.4c-0.2-0.2-0.4-0.5-0.4-0.8V25h1v4.8h1V25h1v4.8h0.4V30.6z"/>
				<path fill="#FFFFFF" d="M1132.1,25v8.1h-1.7c-0.3,0-0.5-0.1-0.7-0.2c-0.2-0.1-0.3-0.3-0.4-0.5c-0.1-0.2-0.2-0.4-0.2-0.7v-0.5h1
					v1.1h1v-1.8h-0.8c-0.2,0-0.4-0.1-0.6-0.2c-0.2-0.1-0.3-0.3-0.5-0.5c-0.1-0.2-0.2-0.4-0.2-0.6v-3c0-0.2,0.1-0.4,0.2-0.7
					c0.1-0.2,0.3-0.4,0.4-0.5c0.2-0.1,0.4-0.2,0.6-0.2H1132.1z M1131.1,29.9v-4.1h-1v4.1H1131.1z"/>
				<path fill="#FFFFFF" d="M1139.9,30.6h-2.2c-0.3,0-0.6-0.1-0.8-0.4c-0.2-0.2-0.4-0.5-0.4-0.8V25h1v4.8h1V25h1v4.8h0.4V30.6z
					 M1137.5,24.4c-0.1,0-0.1,0-0.1,0c-0.2,0-0.4-0.1-0.5-0.3c0,0,0-0.1,0-0.2c0-0.1,0-0.1,0-0.2c0-0.1,0.1-0.1,0.1-0.2
					c0.1-0.1,0.2-0.1,0.4-0.1c0.1,0,0.2,0.1,0.3,0.2c0.1,0.1,0.1,0.2,0.1,0.4C1137.8,24.2,1137.7,24.3,1137.5,24.4z M1138.9,24.4
					c-0.1,0-0.1,0-0.1,0c-0.2,0-0.3-0.1-0.3-0.1c-0.1-0.1-0.1-0.2-0.2-0.4c0-0.1,0-0.1,0-0.2c0-0.1,0.1-0.1,0.1-0.2
					c0.1-0.1,0.2-0.1,0.4-0.1c0.1,0,0.3,0.1,0.3,0.2c0.1,0.1,0.1,0.2,0.1,0.4C1139.3,24.1,1139.2,24.3,1138.9,24.4z"/>
				<path fill="#FFFFFF" d="M1143.9,25h2.2c0.2,0,0.4,0.1,0.6,0.2c0.2,0.1,0.3,0.3,0.5,0.4c0.1,0.2,0.2,0.4,0.2,0.6v4.3h-1v-4.8h-1
					v4.8h-1v-4.8h-0.4V25z"/>
				<path fill="#FFFFFF" d="M1152.1,29.6c0.2,0,0.3,0.1,0.4,0.2c0.1,0.1,0.1,0.2,0.1,0.4c0,0.2-0.1,0.4-0.2,0.6
					c-0.1,0.2-0.2,0.3-0.4,0.3h-0.1v-0.4c-0.2-0.1-0.3-0.2-0.3-0.5c0-0.1,0-0.2,0.1-0.3C1151.8,29.6,1151.9,29.6,1152.1,29.6z"/>
				<path fill="#FFFFFF" d="M1159.9,25l0,6.8c0,0.2-0.1,0.4-0.2,0.6c-0.1,0.2-0.3,0.3-0.5,0.5c-0.2,0.1-0.4,0.2-0.6,0.2h-1.8v-1.6h1
					v0.9h1v-1.8h-0.8c-0.2,0-0.4-0.1-0.6-0.2c-0.2-0.1-0.3-0.3-0.5-0.4c-0.1-0.2-0.2-0.4-0.2-0.6V25h1v4.8h1V25H1159.9z"/>
				<path fill="#FFFFFF" d="M1165.5,26.9l0.8,0v-1.2h-1.6c0.1-0.2,0.2-0.3,0.3-0.4c0.1-0.1,0.3-0.2,0.4-0.2c0.2,0,0.3-0.1,0.6-0.1
					h1.4v4.8h0.5v0.7h-2.3c-0.2,0-0.4-0.1-0.6-0.2c-0.2-0.1-0.3-0.3-0.5-0.5c-0.1-0.2-0.2-0.4-0.2-0.6v-1.3c0-0.2,0.1-0.4,0.2-0.6
					c0.1-0.2,0.3-0.3,0.5-0.4C1165.2,26.9,1165.3,26.9,1165.5,26.9z M1166.3,29.9v-2.3h-1v2.3H1166.3z"/>
				<path fill="#FFFFFF" d="M1174.9,25v1.9h-1v-1.1h-1v4.8h-1v-4.3c0-0.2,0.1-0.4,0.2-0.6c0.1-0.2,0.3-0.3,0.5-0.5
					c0.2-0.1,0.4-0.2,0.6-0.2H1174.9z"/>
				<path fill="#FFFFFF" d="M1180.3,25.9v4.6h-1V25c0.3,0,0.5,0.1,0.7,0.3C1180.2,25.5,1180.3,25.7,1180.3,25.9z"/>
				<path fill="#FFFFFF" d="M1184.5,25h2.2c0.2,0,0.4,0.1,0.6,0.2c0.2,0.1,0.3,0.3,0.5,0.4c0.1,0.2,0.2,0.4,0.2,0.6v4.3h-1v-4.8h-1
					v4.8h-1v-4.8h-0.4V25z"/>
			</g>
		</g>
		<g>
			<path fill="#FFFFFF" d="M1096.2,68.3c0.5-0.2,1,0.1,1.4,0.9c0.4,0.8,0.7,1.8,0.8,2.9c0.1,1.1-0.1,2.2-0.5,3.2
				c-0.4,1-1.2,1.7-2.4,2c-0.5,0.1-1,0.1-1.5,0.1c-0.5,0-1.1-0.1-1.8-0.5c-4.5-2-8.3-5.2-11.5-9.6c-3.2-4.3-5.8-8.7-8-13.2
				c-0.2-0.3-0.5-0.8-0.8-1.6c-0.4-0.8-0.8-0.8-1.3-0.2c-0.8,2.1-1.6,4.2-2.4,6.3c-0.8,2.1-1.3,3.5-1.6,4.3
				c-0.3,1.1-0.8,1.9-1.5,2.4c-0.7,0.5-1.4,0.6-2,0.5c-0.6-0.1-1.1-0.6-1.4-1.4c-0.4-0.8-0.3-1.8,0.1-3.3c0.5-1.6,1.2-3.7,2.2-6.3
				c1-2.6,2-5.4,3.1-8.3c1.1-3,2.3-6,3.5-9c1.2-3,2.3-5.8,3.3-8.2c1-2.4,1.8-4.4,2.4-6c0.7-1.6,1-2.4,1-2.5c0.4-0.5,1-0.9,1.7-1.1
				c0.7-0.3,1.5-0.3,2.3-0.1c1.2,0.2,2.1,0.6,2.6,1.1c0.6,0.5,0.9,1.1,0.8,1.7c-0.1,0.7-0.4,1.5-0.9,2.7c-0.8,1.7-1.7,3.6-2.8,5.7
				c-1.1,2.1-2.1,4.1-3.1,6c-1,1.9-1.9,3.6-2.7,5.1c-0.8,1.5-1.3,2.4-1.4,2.8c0,0.2-0.1,0.4-0.2,0.6c-0.1,0.2-0.2,0.4-0.3,0.7
				c-0.1,0.3-0.2,0.5-0.3,0.8c1.6-0.5,3.4-1.4,5.5-2.7c2-1.3,3.4-3.1,4.2-5.5c0.3-0.3,0.1-0.5-0.5-0.6c-0.2-0.1-0.4-0.2-0.6-0.2
				c-0.2,0-0.4-0.1-0.6-0.2c-0.1-0.1-0.1-0.2,0-0.4c0.1-0.2,0.2-0.2,0.3-0.2c0.6-0.3,1.4-0.4,2.3-0.1c0.9,0.2,1.7,0.6,2.5,1.1
				c0.8,0.6,1.4,1.2,1.8,2.1c0.5,0.8,0.6,1.6,0.4,2.4c-0.1,0.2-0.2,0.4-0.2,0.6c-0.1,0.2-0.2,0.4-0.4,0.6c-1.2,2.5-3.1,4.5-5.5,5.8
				c-2.5,1.4-5,2.3-7.7,2.8c0.3,1,1.2,2.6,2.6,4.6c1.4,2.1,3.1,4.1,5,6.1c1.9,2,3.9,3.6,5.8,5c2,1.4,3.7,1.9,5.2,1.6
				c0.5-0.1,1-0.3,1.5-0.6C1095.2,68.8,1095.7,68.5,1096.2,68.3z"/>
			<path fill="#FFFFFF" d="M1111.1,46.5c0.7,0,1.1,0.3,1.1,0.9c0,0.4-0.2,0.8-0.5,1.2c-0.6,1-1.4,2.5-2.4,4.5c-1,2-2.1,4-3.3,6
				c-1.2,2-2.4,3.6-3.6,5c-1.2,1.4-2.3,1.9-3.2,1.6c-0.5-0.2-1-0.7-1.4-1.5c-0.5-0.8-0.7-2.2-0.8-4.2l-0.2-0.1
				c-0.8,1.2-1.8,2.5-3,3.8c-1.2,1.3-2.5,2-3.9,2.1c-2.2,0.1-3.8-0.5-4.9-1.9c-1-1.4-1.5-3.1-1.5-5.2c0-2.1,0.4-4.4,1.3-6.9
				c0.9-2.5,2-4.9,3.5-7c1.5-2.1,3.2-3.9,5.1-5.3c1.9-1.4,3.9-2.1,6.1-2.1c2,0,3.2,1.4,3.5,4.2c0.5-0.8,1.1-1.7,1.9-2.7
				c0.8-1,1.7-1.5,2.8-1.5c0.5,0,1.2,0.2,2,0.7c0.8,0.5,1.1,0.9,0.8,1.4c-0.7,1.1-1.8,3.2-3.2,6.3c-1.4,3.1-3,7.2-4.9,12.4
				c-0.2,0.2-0.3,0.5-0.3,0.8c-0.2,0.7-0.1,1,0.3,0.8c0.2,0,0.7-0.6,1.4-1.7c0.8-1.1,1.6-2.4,2.5-3.9c0.9-1.5,1.8-3,2.7-4.5
				C1109.8,48.1,1110.5,47.1,1111.1,46.5z M1088.9,61.9c0.7,0.6,1.7,0.4,3-0.8c1.3-1.1,2.6-2.6,3.9-4.5c1.3-1.9,2.5-3.8,3.6-5.9
				c1.1-2.1,1.7-3.8,2.1-5.2c0-0.2-0.1-0.5-0.3-1.1c-0.2-0.5-0.5-0.9-0.9-1.3c-0.4-0.4-0.9-0.6-1.6-0.7c-0.7-0.1-1.5,0.1-2.5,0.8
				c-1.4,0.8-2.7,1.8-3.7,3.1c-1.1,1.3-2,3-3,5.2c-0.3,0.9-0.6,1.9-0.9,2.9c-0.3,1-0.5,2-0.6,3c-0.1,1-0.1,1.9,0,2.7
				C1088.1,61,1088.4,61.5,1088.9,61.9z"/>
			<path fill="#FFFFFF" d="M1133.2,47.2c0.6-0.1,1,0,1.2,0.4c0.2,0.4,0.1,0.9-0.4,1.7c-0.8,1.1-1.6,2.4-2.4,3.8
				c-0.8,1.4-1.6,2.9-2.4,4.4c-0.8,1.5-1.6,2.9-2.5,4.2c-0.9,1.3-1.7,2.4-2.5,3.2c-0.4,0.3-1,0.5-1.7,0.6c-0.7,0.1-1.1-0.2-1.2-1.1
				l-0.3,0.6c-1.6,4.1-3.2,8.1-4.8,11.8c-1.6,3.7-2.8,6.6-3.7,8.6c-1.1,2.4-2.4,4.1-3.8,5.2c-1.4,1-2.7,1.4-3.8,1.1
				c-1.3-0.4-2-1.7-2-3.9v-2.9c0-0.2,0-0.4,0.1-0.6c0-0.2,0.1-0.4,0.1-0.6c0-0.5,0-1,0.2-1.4c0.2-0.9,0.4-1.9,0.7-2.9
				c0.3-1,0.6-2.1,1.1-3.2c0.2-0.3,0.4-0.6,0.5-0.8c0.1-0.3,0.2-0.5,0.3-0.8l1.1-1.5c0.7-1.2,1.5-2.2,2.3-3c0.8-0.9,1.7-1.8,2.6-2.6
				c0.9-0.8,1.9-1.5,2.9-2.1l2.1-1.4c0.1-0.1,0.3-0.6,0.5-1.4c-0.7,0.8-1.3,1.3-1.8,1.4c-0.5,0.2-1.1,0.2-1.7,0.2
				c-1.9,0-3.2-0.6-3.9-1.8c-0.7-1.2-1.1-2.7-1.1-4.5c0-1.8,0.3-3.7,0.8-5.8c0.6-2.1,1.1-4.1,1.7-5.9l3-7.9c0.4-0.6,0.9-1,1.6-1.3
				c0.7-0.3,1.3-0.4,2-0.3c0.7,0.1,1.2,0.2,1.7,0.5c0.5,0.3,0.8,0.8,0.9,1.4c0.2,0.4,0,0.9-0.4,1.4c-0.5,0.4-1.1,1.2-1.7,2.3
				c-0.6,1.1-1.2,2.4-1.7,3.8l-1.5,4.2c-0.2,0.6-0.5,1.5-0.8,2.6c-0.3,1.1-0.5,2.3-0.7,3.4c-0.2,1.2-0.2,2.1,0,3
				c0.1,0.8,0.5,1.2,1.1,1.2c0.4,0,1-0.3,1.9-0.9c0.9-0.6,1.7-1.6,2.5-3c0.2-0.4,0.7-1.5,1.4-3.4c0.8-1.9,1.5-3.9,2.4-6
				c0.8-2.1,1.9-5,3.2-8.5c0.3-0.5,0.8-0.9,1.4-1.1c0.7-0.3,1.3-0.3,2-0.2c0.7,0.1,1.3,0.3,1.8,0.6c0.5,0.3,0.7,0.7,0.6,1.2
				c0.1,0,0.1,0.1,0.1,0.1c0,0.4-0.2,0.8-0.6,1.2c-0.5,0.6-1,1.4-1.4,2.3l-3.8,8.8l-3,7.4c-0.2,0.7-0.4,1.4-0.5,2
				c-0.2,0.6-0.2,1-0.1,1.1c0.3,0,0.7-0.4,1.1-1.1c0.4-0.7,0.7-1.1,0.8-1.1c0.1-0.1,0.5-0.7,1.1-1.8c0.7-1.1,1.4-2.4,2.4-3.8
				c0.9-1.4,1.8-2.8,2.7-4.2C1131.8,48.7,1132.6,47.7,1133.2,47.2z M1106.8,85.9c0.3-0.1,0.8-0.8,1.4-2c0.7-1.2,1.4-2.7,2.2-4.5
				c0.8-1.8,1.7-3.9,2.6-6.1c0.9-2.3,1.8-4.5,2.6-6.6l-0.6,0.5c-1.6,1.4-3,3-4.3,4.7c-0.3,0.5-0.6,1-0.9,1.4
				c-0.3,0.4-0.6,0.9-0.8,1.4l-0.6,1.4l-0.6,1.4c0,0.1,0,0.2-0.1,0.3c0,0.1-0.1,0.2-0.1,0.3l-0.3,0.6c0,0.3-0.1,0.6-0.2,0.8
				c0,0.3,0,0.5-0.1,0.6c0,0.2,0,0.4-0.1,0.6c0,0.2-0.1,0.4-0.1,0.6c0,0.5,0,0.9-0.2,1.2v1.1c0,0.2,0,0.5-0.1,0.8
				c0,0.3-0.1,0.6-0.1,0.8v1.2C1106.7,86,1106.7,85.9,1106.8,85.9z"/>
			<path fill="#FFFFFF" d="M1140.5,39.8c0.9,2.6,1.7,5.1,2.4,7.3c0.7,2.2,1.2,4.4,1.4,6.5c0.1,1.3,0,2.7-0.2,4.2
				c-0.3,1.5-0.7,2.8-1.4,4c-0.7,1.2-1.6,2.2-2.7,3c-1.2,0.8-2.6,1.1-4.3,1.1c-1,0-2-0.2-2.9-0.5c-0.9-0.4-1.6-1.1-2.1-2.2
				c-1-2-1-4.2,0-6.7c0.1-0.2,0.3-0.4,0.5-0.5c0.2-0.1,0.4-0.1,0.6-0.1c0.2,0.1,0.4,0.2,0.5,0.2c0.1,0.1,0.2,0.6,0.1,1.6
				c-0.1,0.7,0.1,1.5,0.5,2.5c0.5,1,1.2,1.5,2.4,1.7c0.8,0.1,1.4,0,1.7-0.2c0.4-0.2,0.6-0.4,0.8-0.6c1.1-0.9,1.8-2.1,2.1-3.6
				c0.2-1.5,0.3-3.3,0.1-5.3c-0.2-1.6-0.6-3.3-1.2-5c-0.6-1.7-1-2.6-1.2-2.7c0.1,0,0.1,0.1,0,0.2c-0.6,1-1.5,2.4-2.6,4.2
				c-1.1,1.8-2.2,3.5-3.4,5.3c-1.2,1.8-2.2,3.4-3.3,4.9c-1,1.5-1.7,2.4-2,2.8c-0.3,0.5-0.7,0.8-1.1,0.8c-0.4,0.1-0.7-0.6-0.8-2v-0.2
				c0-0.1,0.5-1,1.5-2.7c1-1.7,2.2-3.6,3.6-5.8c1.4-2.2,2.7-4.3,4.1-6.3c1.4-2,2.4-3.5,3-4.4c0-0.1,0-0.2-0.1-0.3
				c-0.6-1.8-0.9-3.1-0.8-3.8c0.1-0.7,0.3-1.3,0.6-1.8c0.4-0.6,1-1,1.7-1.1c0.8-0.1,1.4,0,2,0.3c0.6,0.4,1,1,1.2,1.8
				C1141.4,37.2,1141.2,38.4,1140.5,39.8z M1139.3,38.4c0.5-1.4,0.6-2.1,0.1-2.2c-0.4,0-0.6,0-0.6,0.2v0.5
				C1138.8,37.3,1139,37.8,1139.3,38.4z"/>
			<path fill="#FFFFFF" d="M1168.6,47.8c0.1,0,0.1,0,0.1-0.1c0,0,0.1-0.1,0.2-0.1c0.4,0,0.6,0.3,0.6,0.8c0,0.5-0.2,1-0.6,1.5
				c-1.2,1.7-2.6,3.5-4.2,5.4c-1.6,1.9-3.2,3.6-4.9,5.1c-1.6,1.5-3.2,2.8-4.6,3.9c-1.5,1-2.7,1.6-3.6,1.6c-2.2,0-3.8-0.9-4.8-2.7
				c-1-1.8-1.4-3.8-1.4-5.9c0-1.9,0.4-4,1.2-6.3c0.8-2.3,1.9-4.4,3.3-6.5c1.4-2,3.1-3.7,5-5.1c1.9-1.4,4-2,6.2-2
				c3,0,4.6,1.5,4.6,4.4c0,1-0.2,2.2-0.7,3.6c-0.5,1.4-1.1,2.7-2,3.9c-0.9,1.3-1.9,2.3-3.1,3.3c-1.2,0.9-2.5,1.4-3.9,1.4
				c-0.9,0-1.8-0.2-2.7-0.5c-0.9-0.4-1.5-0.9-2.1-1.7c-0.2,0.6-0.5,1.6-0.9,2.9c-0.4,1.3-0.6,2.7-0.6,4.1c0,1,0.2,1.8,0.5,2.5
				c0.4,0.6,1,1,1.9,1c0.7,0,1.8-0.6,3.3-1.7c1.5-1.2,3-2.5,4.7-4.1c1.7-1.6,3.3-3.2,4.8-4.8C1166.4,49.9,1167.6,48.6,1168.6,47.8z
				 M1154.6,46c-0.5,0.5-1,1.1-1.4,1.7c-0.4,0.7-0.8,1.4-1.2,2.2c0.8,0.7,1.4,1.1,1.8,1.3c0.4,0.2,0.8,0.2,1.2,0.2
				c0.8,0,1.6-0.3,2.3-0.9c0.7-0.6,1.3-1.3,1.8-2c0.5-0.8,0.9-1.5,1.1-2.3c0.3-0.8,0.4-1.3,0.4-1.6c0-1-0.5-1.6-1.4-1.8
				c-0.7,0-1.5,0.3-2.3,0.9C1156.2,44.3,1155.4,45.1,1154.6,46z"/>
			<path fill="#FFFFFF" d="M1188,43.9c0.8-0.1,0.9,0.6,0.3,2.1c-2.1,2.3-3.7,4.2-4.7,5.5c-1,1.3-1.9,2.2-2.6,2.7
				c-0.6,0.5-1.2,0.5-1.8,0.1c-0.6-0.5-0.9-1.2-0.8-2.4c0.1-1.1,0.2-2.4,0.4-3.7c0.1-1.4,0.4-3,0.7-4.8c0-0.4-0.1-0.6-0.3-0.6
				c-0.1-0.1-0.2,0-0.3,0.2c-0.1,0.2-0.2,0.4-0.3,0.6c-0.7,1-1.7,2.6-3,4.9c-1.3,2.2-2.6,4.5-3.9,6.8c-1.3,2.3-2.5,4.4-3.6,6.3
				c-1.1,1.9-1.7,3.1-2,3.5c-0.4,0.5-1.1,0.8-2,0.9c-1,0.1-1.4-0.6-1.4-2.1v-0.2h0.2c0-0.7,0.1-1.3,0.3-1.8c0-0.2,0.1-0.5,0.2-0.8
				c0.1-0.3,0.2-0.6,0.3-0.9c0.6-2.5,1.3-5,2.1-7.5c0.8-2.5,1.5-4.7,2.2-6.7c0.7-2,1.3-3.7,1.8-5.1c0.6-1.4,0.9-2.2,1.1-2.5
				c0.3-0.6,0.8-1,1.4-1.3c0.7-0.3,1.3-0.4,2-0.3c0.7,0.1,1.3,0.2,1.8,0.5c0.6,0.3,0.9,0.8,1,1.4c0,0.2,0,0.4-0.1,0.7
				c-0.1,0.3-0.3,0.5-0.5,0.7c-0.5,0.4-1.1,1.2-1.7,2.3c-0.6,1.1-1.2,2.4-1.7,3.8c-0.1,0.3-0.2,0.6-0.3,0.9
				c-0.1,0.3-0.2,0.7-0.3,1.1c1.2-2,2.5-4,3.9-6c1.4-2,2.2-3.1,2.7-3.4c0.5-0.5,1.1-0.9,1.8-1.1c0.7-0.3,1.3-0.3,1.9-0.2
				c0.6,0.2,1,0.5,1.4,1.1c0.4,0.6,0.4,1.3,0.2,2.2c-0.2,0.8-0.4,1.7-0.7,2.8c-0.3,1.1-0.5,2.1-0.8,3c-0.3,1-0.5,1.8-0.8,2.7
				c-0.3,0.8-0.4,1.3-0.4,1.4c-0.1,0.4-0.1,0.6,0,0.5c0.1-0.1,0.3-0.2,0.5-0.3c0.3-0.4,1.1-1.3,2.3-2.8
				C1185.7,46.3,1186.9,45,1188,43.9z"/>
			<path fill="#FFFFFF" d="M1197.4,48.4c-0.9,1.2-1.9,2.7-3.1,4.6c-1.2,1.8-2.3,3.6-3.4,5.3c-1.1,1.7-2.1,3.3-3,4.6
				c-0.9,1.4-1.7,2.3-2.3,2.7c-0.8,0.5-1.7,0.6-2.8,0.4c-1.1-0.3-1.7-0.9-1.9-2c-0.4-3,0.1-6.6,1.5-10.5c1.4-4,3.1-8.6,5.2-13.7
				c0.4-1,1-1.6,1.8-1.9c0.8-0.3,1.6-0.3,2.4,0c0.8,0.3,1.3,0.7,1.7,1.4c0.4,0.7,0.4,1.3,0,2c-1.1,1.9-2.2,4-3.2,6.1
				c-1,2.2-1.9,4.2-2.6,6.1c-0.7,1.9-1.2,3.4-1.5,4.5c-0.3,1.2-0.2,1.7,0.3,1.6c0.5-0.4,1.2-1.2,2.1-2.3c0.9-1.1,1.7-2.4,2.7-3.7
				c0.9-1.4,1.8-2.8,2.8-4.2c1-1.4,1.8-2.6,2.5-3.6c0.8-0.1,1.4,0.1,1.7,0.5C1198.4,46.7,1198.2,47.4,1197.4,48.4z"/>
		</g>
		<g>
			<path fill="#FFFFFF" d="M1231.8,46.6c0.5-0.1,0.9,0,1.1,0.4c0.2,0.4,0,0.9-0.5,1.7c-1.7,3-3.2,5.5-4.4,7.5
				c-1.2,2-2.6,4.2-4.2,6.6c-1.1,1.6-2.1,2.6-2.8,2.8c-0.8,0.2-1.4,0.3-2,0.2c-0.7-0.2-1.3-0.5-1.7-1c-0.4-0.5-0.7-1.3-0.8-2.7
				c0-1.3,0.1-2.8,0.4-4.4c0.3-1.6,0.6-3.3,1.1-4.9c0.5-1.7,1-3.2,1.6-4.7c0.6-1.5,1.2-2.7,1.7-3.6c-1,1.4-2.1,3-3.2,4.7
				c-1.1,1.7-2.2,3.4-3.2,5c-1,1.6-1.9,3.1-2.7,4.4c-0.8,1.3-1.4,2.3-1.8,3c-1.1,1.5-2,2.6-2.7,3.2c-0.7,0.6-1.4,0.9-2.2,0.9
				c-0.7-0.2-1.3-0.5-1.7-0.9c-0.4-0.4-0.5-1.5-0.2-3.2c0.2-1.4,0.6-3.5,1.2-6.1c0.6-2.7,1.5-5.3,2.6-8c0.2-0.7,0.1-0.8-0.3-0.1
				c-1.2,1.6-2.5,3.4-3.9,5.5c-1.4,2-2.6,3.9-3.8,5.7c-1.2,1.8-2.2,3.3-3,4.6c-0.9,1.3-1.3,1.9-1.4,2c-0.8,0.7-1.8,0.9-3,0.5
				c-1.2-0.4-1.7-1-1.6-1.9c0.6-2.7,1.3-5.5,2.2-8.3c0.9-2.8,1.7-5.5,2.6-7.9c0.9-2.4,1.6-4.4,2.3-6.1c0.7-1.6,1.2-2.6,1.4-2.9
				c0.4-0.6,1-1,1.7-1.3c0.7-0.3,1.4-0.4,2.1-0.4c0.7,0,1.3,0.2,1.9,0.5c0.6,0.3,0.9,0.8,1,1.4c0.1,0.5,0,1-0.5,1.4
				c-0.8,0.5-1.5,1.2-2.1,2.1c-0.6,0.9-1,1.9-1.4,3c-0.4,1.1-0.8,2.1-1.1,3.1c-0.3,1-0.6,1.8-0.8,2.4c1.1-1.6,2.3-3.5,3.6-5.5
				c1.3-2.1,2.7-4,4.1-5.8c0.6-0.8,1.3-1.4,2.2-1.7c0.9-0.4,1.7-0.5,2.4-0.3c0.8,0.1,1.3,0.6,1.7,1.3c0.4,0.7,0.5,1.7,0.1,3
				c-0.1,0.6-0.4,1.5-0.8,2.7c-0.4,1.2-0.8,2.4-1.3,3.8c-0.5,1.4-0.9,2.7-1.4,4.1c-0.5,1.4-0.8,2.5-1,3.3v0.2c0.4-0.4,0.8-1,1.3-1.7
				c0.5-0.7,0.9-1.5,1.4-2.3c0.6-1,1.5-2.5,2.7-4.3c1.2-1.9,2.6-3.8,4.2-5.8c1.7-2.3,3.1-3.7,4.3-4.1c1.1-0.4,2.2-0.4,3.2,0.1
				c0.8,0.5,1.3,1.2,1.4,2c0.2,0.8-0.2,2.1-1.1,3.9c-1.1,2.1-2.2,4.4-3.3,6.7c-1.1,2.3-1.9,5.1-2.4,8.2c0,0.3,0,0.7,0,1.2
				c0,0.5,0.1,0.8,0.5,0.8c0.3,0,0.7-0.2,1.1-0.7c0.4-0.4,0.8-1,1.2-1.6c0.4-0.6,0.8-1.2,1.1-1.7c0.3-0.6,0.6-1,0.8-1.3
				c1-1.5,2.1-3.2,3.4-5.1C1230.6,48.2,1231.4,47,1231.8,46.6z"/>
			<path fill="#FFFFFF" d="M1198.1,26.6c-0.6-0.6-1.1-0.8-1.9-1c-0.3-0.1-1,0.2-1.3,0.8c0,0.1-0.1,0.2-0.1,0.3
				c-0.1-0.9-0.7-1.3-1-1.3c-0.8-0.1-1.4-0.2-2.1,0.2c-0.7,0.3-1.2,0.8-1.3,1.5c0,0.1,0,0.2,0,0.3c-0.1,0.6-0.1,1.4,0.5,2.3
				c0.9,1.5,1,2.4,0.9,2.9c-0.3,0.3-0.6,0.5-1,0.8c0.5,0.3,1.1,0.4,1.7,0.3c0.6-0.1,1.2-0.3,1.8-0.6c0.6-0.3,1.1-0.7,1.6-1.1
				c0.5-0.4,0.9-0.8,1.2-1.1c0.9-0.9,1.4-1.7,1.6-2.4C1198.7,27.8,1198.7,27.2,1198.1,26.6z"/>
		</g>
	</g>
</g>
<g id="logo_x5F_icon">
	<g>
		<linearGradient id="SVGID_3_" gradientUnits="userSpaceOnUse" x1="41.7292" y1="76.3261" x2="131.101" y2="76.3261">
			<stop  offset="1.123600e-02" style="stop-color:#ED1C24"/>
			<stop  offset="0.5" style="stop-color:#AB0F14"/>
			<stop  offset="0.9944" style="stop-color:#670000"/>
		</linearGradient>
		<path fill="url(#SVGID_3_)" d="M131.1,118.6H52.7c-6.1,0-11-4.9-11-11V46c0-6.6,5.3-11.9,11.9-11.9h77.5V118.6z"/>
		<path fill="#ED2224" d="M128.1,114.6H49.7c-6.1,0-11-4.9-11-11V42c0-6.6,5.3-11.9,11.9-11.9h77.5V114.6z"/>
		<g>
			<path fill="#FFFFFF" d="M117.2,72.9c0.8-0.2,1.4,0,1.7,0.6c0.3,0.6,0.1,1.5-0.7,2.8c-2.8,4.9-5.1,8.9-7.1,12.1
				c-1.9,3.2-4.2,6.7-6.8,10.6c-1.8,2.6-3.3,4.1-4.5,4.5c-1.2,0.4-2.3,0.5-3.3,0.4c-1.1-0.3-2-0.9-2.7-1.6c-0.6-0.7-1.1-2.2-1.2-4.3
				c0-2.1,0.2-4.5,0.6-7.1c0.4-2.6,1-5.2,1.7-7.9c0.7-2.7,1.6-5.2,2.6-7.5c1-2.3,1.9-4.3,2.7-5.7c-1.6,2.3-3.3,4.8-5.1,7.5
				c-1.8,2.8-3.5,5.4-5.1,8c-1.6,2.6-3.1,5-4.4,7.1c-1.3,2.1-2.3,3.7-2.9,4.9c-1.8,2.4-3.2,4.1-4.3,5.1c-1.1,1-2.2,1.5-3.5,1.5
				c-1.1-0.3-2-0.8-2.7-1.5c-0.7-0.6-0.7-2.3-0.2-5.1c0.3-2.3,1-5.6,1.9-9.9c1-4.3,2.3-8.6,4.1-12.8c0.3-1.1,0.2-1.2-0.5-0.2
				c-1.9,2.6-4,5.5-6.2,8.8c-2.2,3.2-4.2,6.3-6.1,9.1c-1.9,2.8-3.5,5.3-4.9,7.3c-1.4,2-2.1,3.1-2.3,3.3c-1.3,1.1-2.9,1.4-4.8,0.9
				c-1.9-0.6-2.7-1.6-2.6-3c1-4.4,2.2-8.8,3.5-13.4c1.4-4.5,2.8-8.8,4.1-12.7c1.4-3.9,2.6-7.1,3.8-9.7c1.1-2.6,1.9-4.1,2.2-4.6
				c0.6-1,1.5-1.7,2.7-2.1c1.1-0.4,2.3-0.6,3.4-0.6c1.1,0,2.1,0.2,3,0.7c0.9,0.5,1.4,1.2,1.6,2.2c0.2,0.8-0.1,1.5-0.7,2.2
				c-1.3,0.8-2.4,2-3.3,3.4c-0.9,1.5-1.7,3-2.3,4.8c-0.7,1.7-1.2,3.4-1.7,5c-0.5,1.6-0.9,2.9-1.2,3.9c1.8-2.6,3.7-5.6,5.8-8.9
				c2.1-3.3,4.3-6.5,6.6-9.4c1-1.3,2.1-2.2,3.5-2.8c1.4-0.6,2.7-0.7,3.9-0.5c1.2,0.2,2.1,0.9,2.8,2.1c0.6,1.1,0.7,2.8,0.2,4.9
				c-0.2,1-0.6,2.4-1.2,4.3c-0.6,1.9-1.3,3.9-2.1,6.1c-0.7,2.2-1.5,4.4-2.2,6.6c-0.7,2.2-1.3,3.9-1.6,5.2v0.2
				c0.6-0.6,1.3-1.5,2.1-2.7c0.7-1.1,1.5-2.4,2.3-3.7c1-1.6,2.4-3.9,4.4-6.9c2-3,4.2-6.1,6.8-9.4c2.8-3.7,5-5.9,6.8-6.6
				c1.8-0.6,3.5-0.6,5.1,0.2c1.3,0.8,2.1,1.9,2.3,3.2c0.2,1.3-0.4,3.4-1.8,6.3c-1.8,3.4-3.6,7-5.4,10.7c-1.8,3.7-3.1,8.1-3.9,13.1
				c0,0.5,0,1.1,0,2c0,0.8,0.2,1.2,0.7,1.2c0.5,0,1-0.4,1.7-1.1c0.6-0.7,1.3-1.6,1.9-2.6c0.7-1,1.2-1.9,1.7-2.8
				c0.5-0.9,0.9-1.6,1.2-2.1c1.6-2.4,3.4-5.2,5.5-8.2C115.3,75.3,116.6,73.5,117.2,72.9z"/>
			<path fill="#FFFFFF" d="M63.2,40.8c-1-0.9-1.8-1.3-3.1-1.6c-0.5-0.1-1.6,0.3-2,1.4c-0.1,0.1-0.1,0.3-0.2,0.5
				c-0.1-1.4-1.1-2-1.5-2.1c-1.3-0.2-2.2-0.3-3.4,0.2c-1.2,0.5-1.9,1.3-2.1,2.4c0,0.2,0,0.4,0,0.6c-0.2,0.9-0.1,2.2,0.8,3.7
				c1.4,2.4,1.6,3.8,1.5,4.7c-0.5,0.5-1,0.9-1.6,1.2c0.8,0.5,1.7,0.6,2.7,0.5c1-0.2,1.9-0.5,2.8-1c0.9-0.5,1.8-1.1,2.6-1.8
				c0.8-0.7,1.4-1.3,2-1.7c1.5-1.4,2.3-2.7,2.5-3.9C64.2,42.7,64.1,41.7,63.2,40.8z"/>
		</g>
	</g>
</g>
</svg>
